<svg clip-rule="evenodd" fill-rule="evenodd" stroke-linejoin="round" stroke-miterlimit="2" viewBox="0 0 48 48" xmlns="http://www.w3.org/2000/svg">
 <linearGradient id="a" x2="1" gradientTransform="matrix(30.1001 -31.6845 31.6845 30.1001 8.02804 39.8445)" gradientUnits="userSpaceOnUse">
  <stop stop-color="#005e6c" offset="0"/>
  <stop stop-color="#00acc7" offset="1"/>
 </linearGradient>
 <linearGradient id="b" x2="1" gradientTransform="matrix(-40.9891 29.9086 -21.7748 -29.842 44.7188 9.23817)" gradientUnits="userSpaceOnUse">
  <stop stop-color="#007b8e" offset="0"/>
  <stop stop-color="#03d0df" offset="1"/>
 </linearGradient>
 <linearGradient id="c" x2="1" gradientTransform="matrix(40.1334 -42.246 42.246 40.1334 10.7041 53.126)" gradientUnits="userSpaceOnUse">
  <stop stop-color="#005e6c" offset="0"/>
  <stop stop-color="#00bddb" offset="1"/>
 </linearGradient>
 <path d="m46.841 11.91c0-2.624-2.127-4.75-4.75-4.75h-36.182c-2.623 0-4.75 2.126-4.75 4.75v24.185c0 2.622 2.127 4.749 4.75 4.749h36.183c2.622 0 4.749-2.127 4.749-4.749zm-1 0c0-2.071-1.679-3.75-3.75-3.75h-36.183c-2.07 0-3.75 1.679-3.75 3.75v24.185c0 2.07 1.68 3.75 3.75 3.75h36.183c2.071 0 3.75-1.68 3.75-3.75z" fill="url(#a)"/>
 <path d="m45.841 11.924c0-2.079-1.679-3.764-3.75-3.764h-36.183c-2.07 0-3.75 1.685-3.75 3.764v24.275c0 2.079 1.68 3.764 3.75 3.764h36.183c2.071 0 3.75-1.685 3.75-3.764z" fill="url(#b)"/>
 <path d="m2.159 13.217h43.683" fill="none" stroke="url(#c)"/>
 <path d="m23.977 19.424c2.319 0 4.291 1.597 4.883 3.741.517-1.344 1.782-2.31 3.304-2.31 1.998 0 3.643 1.645 3.643 3.643 0 1.999-1.645 3.644-3.643 3.644-1.526 0-2.793-.945-3.307-2.282-.597 2.133-2.565 3.712-4.88 3.712-2.297 0-4.257-1.558-4.873-3.667-.555 1.309-1.857 2.237-3.357 2.237-1.999 0-3.554-1.623-3.554-3.622s1.555-3.665 3.554-3.665c1.5 0 2.802.928 3.357 2.236.616-2.108 2.576-3.667 4.873-3.667zm0 1.996c1.688 0 3.078 1.389 3.078 3.078s-1.39 3.079-3.078 3.079c-1.689 0-3.079-1.39-3.079-3.079s1.39-3.078 3.079-3.078zm-8.23 1.71c-.751 0-1.369.617-1.369 1.368s.618 1.369 1.369 1.369c.75 0 1.368-.618 1.368-1.369s-.618-1.368-1.368-1.368zm16.417 0c.75 0 1.368.617 1.368 1.368s-.618 1.369-1.368 1.369c-.751 0-1.369-.618-1.369-1.369s.618-1.368 1.369-1.368z" fill="#006f7f"/>
</svg>
