<svg clip-rule="evenodd" fill-rule="evenodd" stroke-linejoin="round" stroke-miterlimit="2" viewBox="0 0 48 48" xmlns="http://www.w3.org/2000/svg">
 <linearGradient id="a" x2="1" gradientTransform="matrix(30.1001 -31.6845 31.6845 30.1001 8.02804 39.8445)" gradientUnits="userSpaceOnUse">
  <stop stop-color="#005e6c" offset="0"/>
  <stop stop-color="#00acc7" offset="1"/>
 </linearGradient>
 <linearGradient id="b" x2="1" gradientTransform="matrix(-40.9891 29.9086 -21.7748 -29.842 44.7188 9.23817)" gradientUnits="userSpaceOnUse">
  <stop stop-color="#007b8e" offset="0"/>
  <stop stop-color="#03d0df" offset="1"/>
 </linearGradient>
 <linearGradient id="c" x2="1" gradientTransform="matrix(40.1334 -42.246 42.246 40.1334 10.7041 53.126)" gradientUnits="userSpaceOnUse">
  <stop stop-color="#005e6c" offset="0"/>
  <stop stop-color="#00bddb" offset="1"/>
 </linearGradient>
 <path d="m46.841 11.91c0-2.624-2.127-4.75-4.75-4.75h-36.182c-2.623 0-4.75 2.126-4.75 4.75v24.185c0 2.622 2.127 4.749 4.75 4.749h36.183c2.622 0 4.749-2.127 4.749-4.749zm-1 0c0-2.071-1.679-3.75-3.75-3.75h-36.183c-2.07 0-3.75 1.679-3.75 3.75v24.185c0 2.07 1.68 3.75 3.75 3.75h36.183c2.071 0 3.75-1.68 3.75-3.75z" fill="url(#a)"/>
 <path d="m45.841 11.924c0-2.079-1.679-3.764-3.75-3.764h-36.183c-2.07 0-3.75 1.685-3.75 3.764v24.275c0 2.079 1.68 3.764 3.75 3.764h36.183c2.071 0 3.75-1.685 3.75-3.764z" fill="url(#b)"/>
 <path d="m2.159 13.217h43.683" fill="none" stroke="url(#c)"/>
 <path d="m19.788 20.475c.027-.002.052.002.077.018l1.67 1.085c.231-.132.397-.247.649-.341v1.798c-.983.621-1.582 1.705-1.583 2.868 0 1.861 1.531 3.393 3.393 3.393 1.326-.001 2.536-.781 3.085-1.988.385.49.94 1.165 1.008 1.268.161.218.364.494.364.494.019.027.053.041.084.031l.214-.066.656 1.071c.03.049.021.112-.019.153l-.961.956c-.042.041-.108.048-.157.016l-1.677-1.092c-.414.255-.863.456-1.345.581l-.464 1.876c-.013.055-.062.093-.119.093h-1.365c-.06 0-.107-.042-.12-.1l-.391-1.862c-.478-.119-.928-.308-1.34-.554l-1.67 1.007c-.049.029-.112.025-.153-.016l-.965-.958c-.042-.042-.048-.108-.015-.157l1.069-1.617c-.26-.438-.455-.919-.57-1.429l-1.836-.442c-.056-.013-.099-.062-.099-.119v-1.354c0-.059.042-.115.099-.126l1.893-.391c.126-.454.313-.881.555-1.273l-1.028-1.683c-.029-.049-.025-.11.016-.15l.965-.959c.021-.021.052-.027.08-.031zm5.33-3.618v4.748l3.173-4.75 2.501 1.131-3.406 4.072 3.381 3.845-2.476 1.131-3.173-4.524v4.071l-2.255.353v-9.628l2.255-.449v-.002h.013z" fill="#006f7f" fill-rule="nonzero"/>
</svg>
