<svg clip-rule="evenodd" fill-rule="evenodd" stroke-linejoin="round" stroke-miterlimit="2" viewBox="0 0 48 48" xmlns="http://www.w3.org/2000/svg">
 <linearGradient id="a" x2="1" gradientTransform="matrix(30.1001 -31.6845 31.6845 30.1001 8.02804 39.8445)" gradientUnits="userSpaceOnUse">
  <stop stop-color="#005e6c" offset="0"/>
  <stop stop-color="#00acc7" offset="1"/>
 </linearGradient>
 <linearGradient id="b" x2="1" gradientTransform="matrix(-40.9891 29.9086 -21.7748 -29.842 44.7188 9.23817)" gradientUnits="userSpaceOnUse">
  <stop stop-color="#007b8e" offset="0"/>
  <stop stop-color="#03d0df" offset="1"/>
 </linearGradient>
 <linearGradient id="c" x2="1" gradientTransform="matrix(40.1334 -42.246 42.246 40.1334 10.7041 53.126)" gradientUnits="userSpaceOnUse">
  <stop stop-color="#005e6c" offset="0"/>
  <stop stop-color="#00bddb" offset="1"/>
 </linearGradient>
 <path d="m46.841 11.91c0-2.624-2.127-4.75-4.75-4.75h-36.182c-2.623 0-4.75 2.126-4.75 4.75v24.185c0 2.622 2.127 4.749 4.75 4.749h36.183c2.622 0 4.749-2.127 4.749-4.749zm-1 0c0-2.071-1.679-3.75-3.75-3.75h-36.183c-2.07 0-3.75 1.679-3.75 3.75v24.185c0 2.07 1.68 3.75 3.75 3.75h36.183c2.071 0 3.75-1.68 3.75-3.75z" fill="url(#a)"/>
 <path d="m45.841 11.924c0-2.079-1.679-3.764-3.75-3.764h-36.183c-2.07 0-3.75 1.685-3.75 3.764v24.275c0 2.079 1.68 3.764 3.75 3.764h36.183c2.071 0 3.75-1.685 3.75-3.764z" fill="url(#b)"/>
 <path d="m2.159 13.217h43.683" fill="none" stroke="url(#c)"/>
 <path d="m16.755 30.937c-.536.301-1.154.473-1.811.473-2.045 0-3.705-1.66-3.705-3.705 0-1.766 1.237-3.244 2.892-3.615-.007.106-.011.214-.011.322 0 1.713.875 3.224 2.201 4.11-.092.26-.143.539-.143.829 0 .604.217 1.157.577 1.586zm7.245-10.23c2.953 0 5.351 2.398 5.351 5.351s-2.398 5.351-5.351 5.351-5.351-2.398-5.351-5.351 2.398-5.351 5.351-5.351zm-5.627 6.605c.284 1.279.994 2.399 1.973 3.202-.371.541-.993.895-1.697.895-1.136 0-2.058-.922-2.058-2.058 0-1.042.777-1.905 1.782-2.039zm10.702-3.986c.35-.097.719-.149 1.1-.149 2.271 0 4.116 1.845 4.116 4.116 0 2.272-1.845 4.116-4.116 4.116-.959 0-1.841-.328-2.541-.878 1.299-1.057 2.13-2.669 2.13-4.473 0-.988-.25-1.919-.689-2.732zm5.628 3.967c1.136.001 2.058.923 2.058 2.058 0 1.136-.923 2.058-2.058 2.058-.619 0-1.173-.273-1.551-.705.951-.83 1.551-2.051 1.551-3.411zm-16.405-.388c-.775.111-1.434.581-1.803 1.237-1.185-.817-1.962-2.184-1.962-3.73 0-2.24 1.63-4.102 3.767-4.464-.042.246-.064.5-.064.759 0 .924.278 1.784.754 2.501-.48.841-.754 1.814-.754 2.85 0 .288.021.571.062.847zm8.956-5.603c.026-.195.039-.394.039-.595 0-.577-.108-1.128-.304-1.635.1-.008.202-.012.304-.012 2.045 0 3.705 1.66 3.705 3.705 0 .025 0 .05-.001.075-.266-.05-.541-.075-.822-.075-.457 0-.899.068-1.316.194-.418-.654-.965-1.219-1.605-1.657zm-8.021 1.518c-.371-.618-.584-1.341-.584-2.113 0-2.272 1.844-4.116 4.116-4.116 2.271 0 4.116 1.844 4.116 4.116 0 .118-.005.235-.015.35-.844-.485-1.823-.763-2.866-.763-1.981 0-3.73 1.002-4.767 2.526zm-.838-3.304c-.799.108-1.538.407-2.169.85-.031-.156-.047-.317-.047-.482 0-1.363 1.107-2.47 2.47-2.47.3 0 .588.054.854.152-.519.539-.906 1.207-1.108 1.95z" fill="#006f7f"/>
</svg>
