<svg clip-rule="evenodd" fill-rule="evenodd" stroke-linejoin="round" stroke-miterlimit="2" viewBox="0 0 48 48" xmlns="http://www.w3.org/2000/svg">
 <linearGradient id="a" x2="1" gradientTransform="matrix(30.1001 -31.6845 31.6845 30.1001 8.02804 39.8445)" gradientUnits="userSpaceOnUse">
  <stop stop-color="#005e6c" offset="0"/>
  <stop stop-color="#00acc7" offset="1"/>
 </linearGradient>
 <linearGradient id="b" x2="1" gradientTransform="matrix(-40.9891 29.9086 -21.7748 -29.842 44.7188 9.23817)" gradientUnits="userSpaceOnUse">
  <stop stop-color="#007b8e" offset="0"/>
  <stop stop-color="#03d0df" offset="1"/>
 </linearGradient>
 <linearGradient id="c" x2="1" gradientTransform="matrix(40.1334 -42.246 42.246 40.1334 10.7041 53.126)" gradientUnits="userSpaceOnUse">
  <stop stop-color="#005e6c" offset="0"/>
  <stop stop-color="#00bddb" offset="1"/>
 </linearGradient>
 <path d="m46.841 11.91c0-2.624-2.127-4.75-4.75-4.75h-36.182c-2.623 0-4.75 2.126-4.75 4.75v24.185c0 2.622 2.127 4.749 4.75 4.749h36.183c2.622 0 4.749-2.127 4.749-4.749zm-1 0c0-2.071-1.679-3.75-3.75-3.75h-36.183c-2.07 0-3.75 1.679-3.75 3.75v24.185c0 2.07 1.68 3.75 3.75 3.75h36.183c2.071 0 3.75-1.68 3.75-3.75z" fill="url(#a)"/>
 <path d="m45.841 11.924c0-2.079-1.679-3.764-3.75-3.764h-36.183c-2.07 0-3.75 1.685-3.75 3.764v24.275c0 2.079 1.68 3.764 3.75 3.764h36.183c2.071 0 3.75-1.685 3.75-3.764z" fill="url(#b)"/>
 <path d="m2.159 13.217h43.683" fill="none" stroke="url(#c)"/>
 <path d="m24 15.075c-5.611 0-10.128 4.517-10.128 10.128 0 4.523 2.997 8.33 7.075 9.638v-1.699c-2.564.566-3.164-1.127-3.164-1.127-.419-1.083-1.023-1.168-1.023-1.168-.837-.58.063-.571.063-.571.924.066 1.411.967 1.411.967.821 1.431 2.217 1.019 2.743.779.083-.605.262-1.628.526-1.862-2.046-.237-3.579-1.545-3.579-5.133 0-1.022.603-2.365 1.192-3.019-.095-.236-.413-1.607.089-2.896 0 0 .049-.015.148-.02.301-.014.976.466 2.295 1.375.797-.229 1.715-.335 2.352-.341.718-.005 1.448.119 2.198.341 1.32-.909 2.163-1.392 2.462-1.377h.003c.1.005.148.02.148.02.504 1.288.186 2.662.091 2.898.592.654 1.175 1.997 1.175 3.019 0 3.597-2.305 4.895-4.358 5.126.33.29.413.863.413 1.735 0 1.056-.003 1.742-.005 2.177v.937c4.376-1.12 8.001-5.064 8.001-9.799 0-5.611-4.517-10.128-10.128-10.128z" fill="#006f7f" fill-rule="nonzero"/>
</svg>
