<svg clip-rule="evenodd" fill-rule="evenodd" stroke-linejoin="round" stroke-miterlimit="2" viewBox="0 0 48 48" xmlns="http://www.w3.org/2000/svg">
 <linearGradient id="a" x2="1" gradientTransform="matrix(30.1001 -31.6845 31.6845 30.1001 8.02804 39.8445)" gradientUnits="userSpaceOnUse">
  <stop stop-color="#005e6c" offset="0"/>
  <stop stop-color="#00acc7" offset="1"/>
 </linearGradient>
 <linearGradient id="b" x2="1" gradientTransform="matrix(-40.9891 29.9086 -21.7748 -29.842 44.7188 9.23817)" gradientUnits="userSpaceOnUse">
  <stop stop-color="#007b8e" offset="0"/>
  <stop stop-color="#03d0df" offset="1"/>
 </linearGradient>
 <linearGradient id="c" x2="1" gradientTransform="matrix(40.1334 -42.246 42.246 40.1334 10.7041 53.126)" gradientUnits="userSpaceOnUse">
  <stop stop-color="#005e6c" offset="0"/>
  <stop stop-color="#00bddb" offset="1"/>
 </linearGradient>
 <path d="m46.841 11.91c0-2.624-2.127-4.75-4.75-4.75h-36.182c-2.623 0-4.75 2.126-4.75 4.75v24.185c0 2.622 2.127 4.749 4.75 4.749h36.183c2.622 0 4.749-2.127 4.749-4.749zm-1 0c0-2.071-1.679-3.75-3.75-3.75h-36.183c-2.07 0-3.75 1.679-3.75 3.75v24.185c0 2.07 1.68 3.75 3.75 3.75h36.183c2.071 0 3.75-1.68 3.75-3.75z" fill="url(#a)"/>
 <path d="m45.841 11.924c0-2.079-1.679-3.764-3.75-3.764h-36.183c-2.07 0-3.75 1.685-3.75 3.764v24.275c0 2.079 1.68 3.764 3.75 3.764h36.183c2.071 0 3.75-1.685 3.75-3.764z" fill="url(#b)"/>
 <path d="m2.159 13.217h43.683" fill="none" stroke="url(#c)"/>
 <path d="m24 13.902c-.39 0-.783.032-1.163.071-.759.077-1.477.204-2.184.423-3.535 1.095-6.34 3.899-7.434 7.434-.219.707-.347 1.424-.423 2.184-.038.38-.071.773-.071 1.163s.033.783.071 1.163c.076.76.204 1.477.423 2.184 1.094 3.535 3.899 6.34 7.434 7.435.707.219 1.425.345 2.185.422.379.038.772.07 1.162.07s.783-.032 1.163-.07c.759-.077 1.477-.203 2.184-.422.706-.22 1.405-.534 2.044-.882 2.556-1.385 4.514-3.725 5.39-6.553.219-.707.347-1.424.423-2.184.038-.38.071-.773.071-1.163s-.033-.784-.071-1.163c-.076-.76-.204-1.477-.423-2.185-.438-1.413-1.161-2.727-2.078-3.84-.23-.278-.485-.52-.74-.775-1.02-1.019-2.209-1.862-3.559-2.431-.337-.142-.704-.278-1.057-.388-.707-.219-1.425-.345-2.185-.423-.379-.038-.772-.07-1.162-.07zm0 1.128c1.706 0 3.31.418 4.721 1.162.038.02.069.051.106.071.028.037.02.078.07.106.037.02.072.051.106.07.059.033.118.083.106.141-.017.084-.155.08-.212.141.008.119-.039.096-.07.176.019.052.062.045.07.105-.01.066-.095.074-.07.141.111.087.212.015.317 0 .23-.028.422.006.563-.105-.014-.088.069-.113.106-.176.075.052.138.122.212.176-.043.018-.138.046-.177.07-.057.039-.075.099-.141.141-.046.033-.162.141-.21.141-.06 0-.169-.049-.212-.035-.061.019-.036.116-.106.141-.135.049-.375-.132-.423.07.058.117.25.078.353.141.064.042.16.248.176.318.016.057.024.255 0 .317-.064.163-.235.145-.423.14-.051 0-.094.005-.141 0-.318-.02-.631-.121-.775.106.01.175.039.271 0 .423-.029.111-.147.186-.141.282.003.049.093.144.106.211.008.037-.016.108 0 .141.053.101.188-.016.281 0 .091.015.177.147.177.247 0 .071-.026.212-.071.281-.09.136-.258.103-.387.177-.107.061-.148.21-.211.317-.068.115-.133.153-.106.317-.092.182-.197.299-.388.388-.055.024-.125.068-.176.106-.041.028-.083.075-.141.141-.071.079-.173.114-.212.175-.028.047-.004.149-.035.212-.045.086-.118.16-.176.246-.026.042-.077.088-.106.141-.065.12-.153.213-.14.318.01.1.134.123.14.211.006.049-.037.088-.034.141.002.077.028.115.034.176.015.152-.076.213-.105.317-.014.049.012.102 0 .141-.025.076-.139.121-.141.211-.002.064.1.122.106.212.004.061-.048.118-.035.176.022.11.231.266.316.353.117.116.231.193.282.316.044.105.062.275.141.353.059.057.171.081.247.141.072.055.171.081.247.141.125.098.294.296.493.282.104-.009.2-.051.317-.071.121-.02.264-.082.387-.07.095.009.184.076.282.07.103-.006.236-.055.353-.106.202-.088.515-.254.81-.211.226.033.23.287.388.388.18.016.314-.036.458 0 .109.026.236.231.247.317.009.088-.059.156-.071.211-.029.119-.05.276-.07.352-.017.06-.038.117-.036.176 0 .054.086.177.141.247.068.086.165.152.246.247.15.172.213.406.318.634.027.057-.025.069 0 .141-.045.345-.162.57-.388.951-.107.123-.213.27-.211.423-.008.369.192.56.176.916-.037.479.002.554-.035.81.161.083.082.323.035.494-.069.203-.138.252-.176.387.084.036.155.046.246.036-1.846 1.919-4.455 3.1-7.328 3.1-1.345 0-2.63-.265-3.806-.74-.003-.002.005-.033 0-.035.107-.045.31.079.388-.071.039-.071-.051-.21 0-.281.037-.05.277-.094.353-.106.108-.019.22.004.282-.035.067-.044.153-.155.141-.282-.006-.059-.06-.088-.106-.141-.039-.045-.009-.1-.035-.141-.05-.071-.121-.107-.141-.212.147-.028.35.165.564.106.099-.028.269-.223.316-.317.014-.029-.016-.141 0-.176.019-.039.065-.05.071-.07.014-.056-.012-.071 0-.106.036-.105.15-.171.211-.247.047-.057.098-.117.141-.176.05-.064.073-.085.106-.141.031-.187-.116-.329-.071-.493.05-.185.315-.303.494-.387.061-.03.124-.088.176-.106.123-.044.272-.03.387-.071.193-.069.258-.282.353-.458.045-.082.097-.152.105-.211.009-.054-.009-.115 0-.177.011-.061.019-.108.036-.176.022-.088.035-.253.035-.352 0-.082-.033-.102-.035-.176-.015-.267.078-.277.176-.423.049-.072.071-.196.106-.247.165-.246.443-.366.423-.74-.009-.122-.051-.383-.141-.422-.052-.023-.171-.007-.247-.035-.242-.09-.418-.368-.67-.388-.053-.002-.081.002-.141 0-.098-.002-.206-.094-.316-.106-.07-.007-.207.02-.247 0-.064-.031-.055-.141-.106-.176-.041-.029-.112-.048-.176-.071-.101-.039-.165-.062-.282-.07-.037-.002-.135.006-.176 0-.064-.01-.117-.069-.177-.106-.073-.045-.11-.077-.141-.141.069-.221-.165-.258-.21-.387-.021-.06.02-.158 0-.211-.027-.076-.093-.113-.177-.177-.147-.114-.282-.219-.493-.246-.095-.01-.205.008-.317 0-.119-.009-.262-.074-.353-.177-.086-.1-.1-.199-.176-.246-.071-.045-.197-.059-.246-.106-.023-.02-.015-.059-.035-.106-.038-.073-.116-.085-.071-.175-.082-.042-.053.051-.141.035-.08-.113-.137-.176-.317-.141-.082.016-.15.139-.247.141-.08.002-.142-.127-.247-.141-.079-.011-.191.082-.246.07-.088-.016-.096-.123-.177-.176-.059-.039-.178-.143-.21-.141-.103.002-.177.217-.318.141-.069-.088.117-.094.036-.176-.062-.062-.092.002-.141.035-.058.039-.113.083-.177.106-.141.053-.241.048-.352.106-.102.053-.116.141-.176.246-.047.086-.14.207-.212.211-.085.006-.169-.108-.246-.141-.236-.102-.369.069-.564.071-.181.002-.431-.288-.423-.458.006-.105.059-.259.071-.388.01-.102.104-.187.105-.282.003-.125-.199-.232-.282-.246-.192-.035-.45.086-.669 0-.041-.07.081-.108.106-.177.014-.038-.014-.062 0-.105.024-.066.11-.107.141-.176.023-.054.012-.146.035-.211.027-.075.099-.123.105-.177.009-.069-.05-.166-.105-.211-.17.01-.289.025-.387.07-.222.101-.165.389-.388.459-.076.024-.196.055-.282.07.146-.738.373-1.444.67-2.114.078.014.143.064.211.07.188.015.197-.129.352-.211.16.022.242-.017.388 0 .098.01.239.135.317.141.065.002.079-.081.141-.071.061.01.166.138.176.212.01.092-.062.179-.035.282.096.098.285.154.423.211.09-.074.014-.246 0-.352-.002-.047.005-.098 0-.141-.011-.074-.035-.148-.035-.212 0-.293.225-.414.422-.528.084-.049.173-.139.247-.177.105-.051.16-.056.246-.105.156-.088.302-.181.423-.282.056-.133-.006-.291 0-.423.056-.035.081.006.141 0 .094-.021.123-.158.177-.211.03-.031.138-.04.175-.071.095-.073.095-.178.176-.211.03-.01.096-.023.141-.035.062-.017.149-.071.247-.106.064-.023.222-.011.247-.035.031-.031-.008-.165 0-.212.049-.231.392-.239.599-.316.143-.056.298-.172.458-.141-.031.11-.168.078-.141.211.035.186.252-.044.317-.07.125-.054.364-.082.529-.141.143-.052.381-.152.246-.318-.113-.008-.148.1-.246.141-.068.01-.084-.031-.141-.035-.056-.002-.086.045-.141.035-.056-.01-.133-.111-.141-.176-.023-.172.177-.225.246-.352-.047-.156-.256-.009-.387-.071.014-.092.067-.193.176-.211.089-.015.299.027.353.07.03.027-.012.098.035.141.053.047.142.011.211 0 .024-.117-.162-.065-.141-.141.14-.09.394-.048.564-.07.099-.015.194-.094.282-.141.082-.047.16-.113.246-.036.025.084-.058.134-.105.177-.158.139-.3.296-.423.458.076.073.19.021.317.035.049.006.125.027.176.035.062.011.127-.01.176 0 .087.021.09.141.177.141.139 0 .15-.117.07-.211.025-.096.07-.179.035-.247-.063-.127-.305.021-.317-.141-.007-.102.104-.133.141-.211-.016-.197.161-.21.141-.387-.01-.075-.09-.072-.141-.141-.027-.037-.04-.115-.07-.141-.107-.09-.305-.075-.318-.247-.005-.103.015-.171 0-.282-.014-.104-.12-.402-.211-.423-.115-.024-.179.184-.317.247-.074.035-.206.049-.282.035-.049-.01-.135-.047-.141-.141-.005-.054.012-.074.036-.106.005-.007-.006-.027 0-.035.891-.256 1.844-.387 2.818-.387zm-4.193.916c-.1.32-.39.503-.775.493-.095.09-.055.263-.106.388-.042.104-.177.184-.282.175-.076-.005-.211-.104-.211-.175 0-.059.057-.125.07-.176.416-.269.851-.499 1.305-.705zm8.631.352c-.037.007-.072.016-.106.035-.078.048-.081.119-.141.141-.084.031-.198.03-.21.106-.011.063.072.083.07.141-.031.076-.09.083-.105.176.104.17.363.002.492-.035.058-.016.11.009.141-.035.035-.056.009-.169.035-.247.029-.086.117-.065.106-.141-.008-.076-.154-.154-.282-.141zm-11.169 1.304c.075.09.138.222 0 .282-.02.009-.268.045-.317.035-.015-.002-.021-.026-.035-.035.108-.105.24-.183.352-.282zm.282.352c.05.002.084.101.141.106.056.004.143-.046.177-.035.086.022.116.183.035.246-.068.008-.093-.081-.141-.07-.14.024-.178.289-.282.281-.098-.01-.171-.21-.071-.281.003-.062-.039-.08-.035-.141.031-.039.095-.112.176-.106zm-.458.071c.029 0 .026-.013.035 0-.014.108-.057.124-.141.176-.145.088-.234.199-.281.387-.015.055-.177.226-.247.211-.162-.034.069-.34.106-.387.041-.051.094-.084.141-.141s.061-.179.105-.211c.05-.035.197-.04.282-.035zm13.883.282c.162-.011.242.183.316.281.062.08.252.192.353.247.057.03.112.077.176.105.066.03.168.069.247.141.078.072.137.182.141.247.002.065-.046.115-.036.176.072.012.108-.06.141-.141.266.379.492.783.705 1.198-.043.027-.062.053-.071.106-.02.115.067.262-.106.282-.108.014-.237-.108-.387-.141-.061-.014-.162.016-.211 0-.113-.039-.08-.179-.176-.247-.056-.039-.194-.095-.282-.106-.056-.005-.084.009-.141 0-.07-.007-.189 0-.247-.035-.055-.034-.197-.094-.211-.141-.023-.076.172-.183.176-.246.004-.049-.06-.067-.071-.141-.007-.046.011-.112 0-.141-.014-.053-.091-.104-.175-.106-.075 0-.149.036-.212.036-.091.002-.275-.046-.388-.036-.067.006-.112.031-.176.036-.178.014-.283-.011-.423 0-.1.005-.293.062-.387.105-.047.023-.079.075-.141.106-.029.014-.069.019-.106.035-.057.027-.156.091-.211.106-.08.02-.172-.006-.317 0-.105.005-.28-.016-.282-.141-.003-.19.348-.109.528-.141.068-.014.094-.094.177-.141.039-.022.069-.046.105-.07.062-.044.166-.127.177-.177.007-.045-.042-.108-.036-.141.008-.042.086-.085.141-.141.086-.086.14-.191.246-.246.072-.039.214-.048.247-.106.008-.065-.002-.081 0-.141.045-.041.034-.062.071-.07.111-.025.223.041.352.035.056-.003.117.004.176-.035.049-.033.092-.082.141-.106.054-.029.111-.102.177-.105zm-12.931.105c.027-.004.073.003.106 0 .047-.002.089 0 .141 0 .051 0 .12-.021.14 0-.032.135-.351.084-.458.035.003-.026.044-.031.071-.035zm-.388.246c.035 0 .069-.014.106 0-.095.081-.224.126-.388.177-.078.024-.197.051-.211-.036-.017-.106.071-.095.141-.105.09-.01.248-.033.352-.036zm13.354 0c-.068.023-.101.159 0 .177.046-.029.047-.09.035-.177-.027-.028-.015-.007-.035 0zm-.035.282c-.033.011-.072-.001-.106.036.002.114.022.181 0 .282.065.126.214.051.247-.036.039-.213-.043-.308-.141-.282zm.88.564c-.09-.004-.158.028-.211.071.075.123.217.145.387.176.062-.045.042-.169.071-.247-.074 0-.122.005-.212 0zm-17.899 4.334c.072.092.15.199.247.247.052.026.111.021.176.035.054.01.09.054.141.07.109.037.267.032.353.071.131.057.204.286.317.352.005.066-.021.127 0 .177.053.071.16.093.246.14.105.058.149.202.247.247.035.014.088-.016.141 0 .135.041.165.246.282.211.076-.022.094-.137.106-.211.051-.055.096-.141.176-.141.127-.003.164.157.211.282.027.069.087.138.106.211.031.128.026.488 0 .564-.033.094-.169.144-.247.247-.036.049-.077.108-.105.141-.05.061-.105.085-.141.14-.021.031-.018.098-.036.141-.061.131-.156.23-.105.388.02.064.105.136.105.211 0 .09-.197.114-.211.212-.01.071.083.22.106.317.016.071.132.129.176.176.071.08.145.18.211.282.129.198.19.439.317.634.068.101.202.176.247.282.022.053-.021.162 0 .212.074.165.433.34.599.422.078.039.139.065.211.106.109.061.333.186.388.282.049.086.081.285.106.423.031.18-.008.333 0 .528.005.107.035.175.035.282 0 .037.002.104 0 .141-.002.127.01.258 0 .387-.006.07-.005.153 0 .212.005.064.066.085.07.141.004.059-.077.129-.07.176.014.129.152.233.176.353.021.093.048.309.035.422-.008.059-.027.146-.035.211-.006.052.008.094 0 .141-2.809-1.804-4.686-4.939-4.686-8.526 0-.46.046-.895.105-1.339zm3.876 1.022c.099-.046.08.128 0 .14-.075.011-.073-.105 0-.14z" fill="#006f7f" fill-rule="nonzero"/>
</svg>
