<svg clip-rule="evenodd" fill-rule="evenodd" stroke-linejoin="round" stroke-miterlimit="2" viewBox="0 0 48 48" xmlns="http://www.w3.org/2000/svg">
 <linearGradient id="a" x2="1" gradientTransform="matrix(30.1001 -31.6845 31.6845 30.1001 8.02804 39.8445)" gradientUnits="userSpaceOnUse">
  <stop stop-color="#005e6c" offset="0"/>
  <stop stop-color="#00acc7" offset="1"/>
 </linearGradient>
 <linearGradient id="b" x2="1" gradientTransform="matrix(-40.9891 29.9086 -21.7748 -29.842 44.7188 9.23817)" gradientUnits="userSpaceOnUse">
  <stop stop-color="#007b8e" offset="0"/>
  <stop stop-color="#03d0df" offset="1"/>
 </linearGradient>
 <linearGradient id="c" x2="1" gradientTransform="matrix(40.1334 -42.246 42.246 40.1334 10.7041 53.126)" gradientUnits="userSpaceOnUse">
  <stop stop-color="#005e6c" offset="0"/>
  <stop stop-color="#00bddb" offset="1"/>
 </linearGradient>
 <path d="m46.841 11.91c0-2.624-2.127-4.75-4.75-4.75h-36.182c-2.623 0-4.75 2.126-4.75 4.75v24.185c0 2.622 2.127 4.749 4.75 4.749h36.183c2.622 0 4.749-2.127 4.749-4.749zm-1 0c0-2.071-1.679-3.75-3.75-3.75h-36.183c-2.07 0-3.75 1.679-3.75 3.75v24.185c0 2.07 1.68 3.75 3.75 3.75h36.183c2.071 0 3.75-1.68 3.75-3.75z" fill="url(#a)"/>
 <path d="m45.841 11.924c0-2.079-1.679-3.764-3.75-3.764h-36.183c-2.07 0-3.75 1.685-3.75 3.764v24.275c0 2.079 1.68 3.764 3.75 3.764h36.183c2.071 0 3.75-1.685 3.75-3.764z" fill="url(#b)"/>
 <path d="m2.159 13.217h43.683" fill="none" stroke="url(#c)"/>
 <path d="m18.259 15.17-1.233 1.233 2.008 2.008c-.169.35-.257.734-.258 1.124.001 1.103.702 2.092 1.743 2.46v7.276c-1.041.368-1.74 1.356-1.742 2.459 0 1.434 1.181 2.614 2.614 2.614 1.434 0 2.614-1.18 2.614-2.614-.002-1.103-.702-2.092-1.743-2.46v-7.276c.085-.031.17-.066.252-.105l3.491 3.49c-.168.351-.256.735-.258 1.124 0 1.434 1.18 2.614 2.614 2.614s2.613-1.18 2.613-2.614c0-1.433-1.18-2.613-2.613-2.613-.389.001-.773.089-1.123.258l-3.492-3.491c.169-.351.257-.735.259-1.123 0-1.434-1.18-2.615-2.614-2.615-.389.003-.773.09-1.124.259l-2.008-2.008z" fill="#006f7f" fill-rule="nonzero"/>
</svg>
