<svg clip-rule="evenodd" fill-rule="evenodd" stroke-linejoin="round" stroke-miterlimit="2" viewBox="0 0 48 48" xmlns="http://www.w3.org/2000/svg">
 <linearGradient id="a" x2="1" gradientTransform="matrix(30.1001 -31.6845 31.6845 30.1001 8.02804 39.8445)" gradientUnits="userSpaceOnUse">
  <stop stop-color="#005e6c" offset="0"/>
  <stop stop-color="#00acc7" offset="1"/>
 </linearGradient>
 <linearGradient id="b" x2="1" gradientTransform="matrix(-40.9891 29.9086 -21.7748 -29.842 44.7188 9.23817)" gradientUnits="userSpaceOnUse">
  <stop stop-color="#007b8e" offset="0"/>
  <stop stop-color="#03d0df" offset="1"/>
 </linearGradient>
 <linearGradient id="c" x2="1" gradientTransform="matrix(40.1334 -42.246 42.246 40.1334 10.7041 53.126)" gradientUnits="userSpaceOnUse">
  <stop stop-color="#005e6c" offset="0"/>
  <stop stop-color="#00bddb" offset="1"/>
 </linearGradient>
 <path d="m46.841 11.91c0-2.624-2.127-4.75-4.75-4.75h-36.182c-2.623 0-4.75 2.126-4.75 4.75v24.185c0 2.622 2.127 4.749 4.75 4.749h36.183c2.622 0 4.749-2.127 4.749-4.749zm-1 0c0-2.071-1.679-3.75-3.75-3.75h-36.183c-2.07 0-3.75 1.679-3.75 3.75v24.185c0 2.07 1.68 3.75 3.75 3.75h36.183c2.071 0 3.75-1.68 3.75-3.75z" fill="url(#a)"/>
 <path d="m45.841 11.924c0-2.079-1.679-3.764-3.75-3.764h-36.183c-2.07 0-3.75 1.685-3.75 3.764v24.275c0 2.079 1.68 3.764 3.75 3.764h36.183c2.071 0 3.75-1.685 3.75-3.764z" fill="url(#b)"/>
 <path d="m2.159 13.217h43.683" fill="none" stroke="url(#c)"/>
 <path d="m20.003 16.621c-4.047 0-7.378 3.331-7.378 7.379s3.33 7.379 7.378 7.379h15.372v-1.23h-15.372c-3.373 0-6.149-2.776-6.149-6.149 0-3.374 2.776-6.149 6.149-6.149v-1.229zm0 1.844c-3.057 0-5.534 2.477-5.534 5.534s2.477 5.534 5.534 5.534h15.372v-1.23h-15.372c-2.377 0-4.304-1.927-4.304-4.304 0-2.378 1.927-4.304 4.304-4.304.639.001 1.269.145 1.845.421v-1.328c-.592-.212-1.215-.321-1.845-.323zm0 1.845c-2.024 0-3.689 1.665-3.689 3.689s1.665 3.689 3.689 3.689h15.372v-1.23h-15.372c-1.349 0-2.46-1.11-2.46-2.459s1.111-2.459 2.46-2.459c.876.001 1.689.471 2.127 1.229h1.346c-.518-1.468-1.915-2.457-3.473-2.459z" fill="#006f7f" fill-rule="nonzero"/>
</svg>
