<svg clip-rule="evenodd" fill-rule="evenodd" stroke-linejoin="round" stroke-miterlimit="2" viewBox="0 0 48 48" xmlns="http://www.w3.org/2000/svg">
 <linearGradient id="a" x2="1" gradientTransform="matrix(30.1001 -31.6845 31.6845 30.1001 8.02804 39.8445)" gradientUnits="userSpaceOnUse">
  <stop stop-color="#005e6c" offset="0"/>
  <stop stop-color="#00acc7" offset="1"/>
 </linearGradient>
 <linearGradient id="b" x2="1" gradientTransform="matrix(-40.9891 29.9086 -21.7748 -29.842 44.7188 9.23817)" gradientUnits="userSpaceOnUse">
  <stop stop-color="#007b8e" offset="0"/>
  <stop stop-color="#03d0df" offset="1"/>
 </linearGradient>
 <linearGradient id="c" x2="1" gradientTransform="matrix(40.1334 -42.246 42.246 40.1334 10.7041 53.126)" gradientUnits="userSpaceOnUse">
  <stop stop-color="#005e6c" offset="0"/>
  <stop stop-color="#00bddb" offset="1"/>
 </linearGradient>
 <path d="m46.841 11.91c0-2.624-2.127-4.75-4.75-4.75h-36.182c-2.623 0-4.75 2.126-4.75 4.75v24.185c0 2.622 2.127 4.749 4.75 4.749h36.183c2.622 0 4.749-2.127 4.749-4.749zm-1 0c0-2.071-1.679-3.75-3.75-3.75h-36.183c-2.07 0-3.75 1.679-3.75 3.75v24.185c0 2.07 1.68 3.75 3.75 3.75h36.183c2.071 0 3.75-1.68 3.75-3.75z" fill="url(#a)"/>
 <path d="m45.841 11.924c0-2.079-1.679-3.764-3.75-3.764h-36.183c-2.07 0-3.75 1.685-3.75 3.764v24.275c0 2.079 1.68 3.764 3.75 3.764h36.183c2.071 0 3.75-1.685 3.75-3.764z" fill="url(#b)"/>
 <path d="m2.159 13.217h43.683" fill="none" stroke="url(#c)"/>
 <path d="m22.727 16.501c-3.962 0-4.05 2.644-5.194 4.424 1.402-.662 2.967-1.226 4.654-1.662 1.536-.396 3.083-.658 4.585-.776-.953-.775-1.619-1.986-4.045-1.986zm5.437 3.787c-1.747.034-3.641.303-5.51.786-6.153 1.59-10.541 5.048-9.797 7.723.428 1.528 2.495 2.913 5.573 3.096-.003-.011-.006-.022-.006-.032v-.004c-.004-.028-.013-.052-.017-.079-.18-1.631.754-2.898 1.828-3.791 1.073-.893 2.449-1.54 4.008-1.887.757-.169 1.52-.254 2.27-.245h.002c1.124.014 2.162.223 3.076.742.754.427 1.443 1.17 1.737 2.088 2.809-1.717 4.261-4.029 3.819-5.644-.492-1.772-3.169-2.828-6.983-2.753zm-1.674 7.438c-.59-.007-1.215.062-1.84.201-2.578.575-4.542 2.207-4.383 3.647.16 1.439 2.378 2.139 4.958 1.563 2.577-.575 4.537-2.208 4.378-3.646-.115-1.046-1.342-1.742-3.113-1.765z" fill="#006f7f" fill-rule="nonzero"/>
</svg>
