<svg clip-rule="evenodd" fill-rule="evenodd" stroke-linejoin="round" stroke-miterlimit="2" viewBox="0 0 48 48" xmlns="http://www.w3.org/2000/svg">
 <linearGradient id="a" x2="1" gradientTransform="matrix(30.1001 -31.6845 31.6845 30.1001 8.02804 39.8445)" gradientUnits="userSpaceOnUse">
  <stop stop-color="#005e6c" offset="0"/>
  <stop stop-color="#00acc7" offset="1"/>
 </linearGradient>
 <linearGradient id="b" x2="1" gradientTransform="matrix(-40.9891 29.9086 -21.7748 -29.842 44.7188 9.23817)" gradientUnits="userSpaceOnUse">
  <stop stop-color="#007b8e" offset="0"/>
  <stop stop-color="#03d0df" offset="1"/>
 </linearGradient>
 <linearGradient id="c" x2="1" gradientTransform="matrix(40.1334 -42.246 42.246 40.1334 10.7041 53.126)" gradientUnits="userSpaceOnUse">
  <stop stop-color="#005e6c" offset="0"/>
  <stop stop-color="#00bddb" offset="1"/>
 </linearGradient>
 <path d="m46.841 11.91c0-2.624-2.127-4.75-4.75-4.75h-36.182c-2.623 0-4.75 2.126-4.75 4.75v24.185c0 2.622 2.127 4.749 4.75 4.749h36.183c2.622 0 4.749-2.127 4.749-4.749zm-1 0c0-2.071-1.679-3.75-3.75-3.75h-36.183c-2.07 0-3.75 1.679-3.75 3.75v24.185c0 2.07 1.68 3.75 3.75 3.75h36.183c2.071 0 3.75-1.68 3.75-3.75z" fill="url(#a)"/>
 <path d="m45.841 11.924c0-2.079-1.679-3.764-3.75-3.764h-36.183c-2.07 0-3.75 1.685-3.75 3.764v24.275c0 2.079 1.68 3.764 3.75 3.764h36.183c2.071 0 3.75-1.685 3.75-3.764z" fill="url(#b)"/>
 <path d="m2.159 13.217h43.683" fill="none" stroke="url(#c)"/>
 <path d="m24.53 17.912c-2.788.001-5.312 1.695-6.371 4.273-2.689.275-4.759 2.566-4.762 5.269 0 2.908 2.394 5.302 5.302 5.302h12.458c1.904 0 3.446-1.544 3.446-3.447 0-1.301-.728-2.42-1.793-3.006.474-.571.732-1.29.732-2.03 0-1.745-1.436-3.18-3.18-3.18h-.026c-1.264-1.98-3.457-3.181-5.806-3.181zm.338 2.024c2.59 0 4.723 2.132 4.723 4.723s-2.133 4.723-4.723 4.723c-2.591 0-4.723-2.132-4.723-4.723s2.132-4.723 4.723-4.723zm0 1.349c-.728.002-1.436.239-2.018.675h2.375c.991 0 1.667.331 1.667 1.59 0 1.469-.676 1.784-1.667 1.784h-1.032v2.024h-1.343c.582.436 1.29.673 2.018.674 1.851 0 3.373-1.522 3.373-3.373s-1.522-3.374-3.373-3.374zm-2.024.68c-.848.636-1.348 1.634-1.35 2.694.002 1.059.502 2.058 1.35 2.694zm1.349 1.344v.675h.675c.397 0 .675 0 .675-.329 0-.346-.244-.346-.675-.346z" fill="#006f7f" fill-rule="nonzero"/>
</svg>
