<svg clip-rule="evenodd" fill-rule="evenodd" stroke-linejoin="round" stroke-miterlimit="2" viewBox="0 0 48 48" xmlns="http://www.w3.org/2000/svg">
 <linearGradient id="a" x2="1" gradientTransform="matrix(-41.9172 30.5858 -22.2679 -30.5177 45.1879 8.90252)" gradientUnits="userSpaceOnUse">
  <stop stop-color="#1e1e1e" offset="0"/>
  <stop stop-color="#565656" offset="1"/>
 </linearGradient>
 <linearGradient id="b" x2="1" gradientTransform="matrix(40.1334 -42.246 42.246 40.1334 10.7041 53.126)" gradientUnits="userSpaceOnUse">
  <stop stop-color="#242424" offset="0"/>
  <stop stop-color="#6c6c6c" offset="1"/>
 </linearGradient>
 <path d="m46.336 11.649c0-2.126-1.717-3.849-3.835-3.849h-37.002c-2.118 0-3.835 1.723-3.835 3.849v24.825c0 2.126 1.717 3.849 3.835 3.849h37.002c2.118 0 3.835-1.723 3.835-3.849v-24.825z" fill="url(#a)"/>
 <path d="m46.841 11.91c0-2.624-2.127-4.75-4.75-4.75h-36.182c-2.623 0-4.75 2.126-4.75 4.75v24.185c0 2.622 2.127 4.749 4.75 4.749h36.183c2.622 0 4.749-2.127 4.749-4.749zm-1 1.119v.688h-43.682v-.312 22.69c0 2.07 1.679 3.75 3.75 3.75h36.183c2.07 0 3.749-1.68 3.749-3.75zm0-.312v-.807c0-2.072-1.679-3.75-3.75-3.75h-36.183c-2.07 0-3.75 1.678-3.75 3.75v.807z" fill="url(#b)"/>
</svg>
