<svg clip-rule="evenodd" fill-rule="evenodd" stroke-linejoin="round" stroke-miterlimit="2" viewBox="0 0 48 48" xmlns="http://www.w3.org/2000/svg">
 <linearGradient id="a" x2="1" gradientTransform="matrix(30.1001 -31.6845 31.6845 30.1001 8.02804 39.8445)" gradientUnits="userSpaceOnUse">
  <stop stop-color="#005e6c" offset="0"/>
  <stop stop-color="#00acc7" offset="1"/>
 </linearGradient>
 <linearGradient id="b" x2="1" gradientTransform="matrix(-40.9891 29.9086 -21.7748 -29.842 44.7188 9.23817)" gradientUnits="userSpaceOnUse">
  <stop stop-color="#007b8e" offset="0"/>
  <stop stop-color="#03d0df" offset="1"/>
 </linearGradient>
 <linearGradient id="c" x2="1" gradientTransform="matrix(40.1334 -42.246 42.246 40.1334 10.7041 53.126)" gradientUnits="userSpaceOnUse">
  <stop stop-color="#005e6c" offset="0"/>
  <stop stop-color="#00bddb" offset="1"/>
 </linearGradient>
 <path d="m46.841 11.91c0-2.624-2.127-4.75-4.75-4.75h-36.182c-2.623 0-4.75 2.126-4.75 4.75v24.185c0 2.622 2.127 4.749 4.75 4.749h36.183c2.622 0 4.749-2.127 4.749-4.749zm-1 0c0-2.071-1.679-3.75-3.75-3.75h-36.183c-2.07 0-3.75 1.679-3.75 3.75v24.185c0 2.07 1.68 3.75 3.75 3.75h36.183c2.071 0 3.75-1.68 3.75-3.75z" fill="url(#a)"/>
 <path d="m45.841 11.924c0-2.079-1.679-3.764-3.75-3.764h-36.183c-2.07 0-3.75 1.685-3.75 3.764v24.275c0 2.079 1.68 3.764 3.75 3.764h36.183c2.071 0 3.75-1.685 3.75-3.764z" fill="url(#b)"/>
 <path d="m2.159 13.217h43.683" fill="none" stroke="url(#c)"/>
 <path d="m20.801 31.341c.171.979.616 2.252.742 2.504.146.294.326.67 1.158.855.364.082.69.153 1.197.444.581.332 1.168.893 1.291.944.39.165.583-.409.81-.593.038.025-.405.936-.798.932-.415-.006-.907-.695-1.536-1.04-.444-.243-.747-.22-.778-.19-.149.148-.142.531.095.81.238.28.341.573-.19.559-.53-.013-1.122.002-1.478-.007-.351-.008-.095-.348-.273-.237-.288.178-.768.189-1.312.174.14-.39.531-.237.852-.614s.544-.369.525-.551c-.055-.516-.098-1.056-.188-1.561-.183-1.029-.109-2.027-.117-2.429zm7.229-.003c.05.474.096 2.215.208 3.128.029.236.062.884.202 1.029.568.587 1.436.386 1.643 1.038-.537-.208-.663-.037-1.431-.052-.768-.014-2.239-.068-2.547-.04.14-.598.337-.566.564-.866.219-.287.075-.697-.429-.506-.074.029.179-.43.276-.555.721-.046 1.102-.837 1.212-2.364.023-.325.294-.424.302-.812zm-8.088-10.972c-.466 1.436-1.395 3.868-1.425 5.171-.021.931.178 2.232.625 3.093.396.766 1.074 1.737 1.293 2.037.218.3-.108-1.049-.223-1.778-.114-.729-.326-2.216-.347-2.752-.021-.537.183-6.095.077-5.771zm-2.024-4.827s.293-.439.744-.439c.45 0 .942-.053 1.287-.168.346-.115 1.089-.67 1.623-.649s1.572.404 2.085.901c.532.515 1.28 1.372 1.92 2.436.866 1.437 1.499 1.597 2.319 3.866.444 1.225.602 2.785.606 3.735.008 2.122.054 3.86.228 5.197.057.445-.972-.955-1.147-1.833-.239-1.199-.402-3.468-.65-4.554-.29-1.277-.824-2.46-.837-2.88-.013-.418-.118-1.701-.524-2.264-.406-.562-1.793-2.016-1.937-2.12-.144-.105.17-.367.641-.158.472.21-.248-.89-.628-1.204s-.653-.303-.778-.065c-.25.473.169.729.475.864-.144.17-.94.249-1.32.327s-.887.62-1.141 1.169c-.161-.213-.212-1.36-.613-1.601-.433-.26-.801-.559-1.401-.589-.392-.019-.952.029-.952.029z" fill="#006f7f"/>
</svg>
