<svg clip-rule="evenodd" fill-rule="evenodd" stroke-linejoin="round" stroke-miterlimit="2" viewBox="0 0 48 48" xmlns="http://www.w3.org/2000/svg">
 <linearGradient id="a" x2="1" gradientTransform="matrix(30.1001 -31.6845 31.6845 30.1001 8.02804 39.8445)" gradientUnits="userSpaceOnUse">
  <stop stop-color="#005e6c" offset="0"/>
  <stop stop-color="#00acc7" offset="1"/>
 </linearGradient>
 <linearGradient id="b" x2="1" gradientTransform="matrix(-40.9891 29.9086 -21.7748 -29.842 44.7188 9.23817)" gradientUnits="userSpaceOnUse">
  <stop stop-color="#007b8e" offset="0"/>
  <stop stop-color="#03d0df" offset="1"/>
 </linearGradient>
 <linearGradient id="c" x2="1" gradientTransform="matrix(40.1334 -42.246 42.246 40.1334 10.7041 53.126)" gradientUnits="userSpaceOnUse">
  <stop stop-color="#005e6c" offset="0"/>
  <stop stop-color="#00bddb" offset="1"/>
 </linearGradient>
 <path d="m46.841 11.91c0-2.624-2.127-4.75-4.75-4.75h-36.182c-2.623 0-4.75 2.126-4.75 4.75v24.185c0 2.622 2.127 4.749 4.75 4.749h36.183c2.622 0 4.749-2.127 4.749-4.749zm-1 0c0-2.071-1.679-3.75-3.75-3.75h-36.183c-2.07 0-3.75 1.679-3.75 3.75v24.185c0 2.07 1.68 3.75 3.75 3.75h36.183c2.071 0 3.75-1.68 3.75-3.75z" fill="url(#a)"/>
 <path d="m45.841 11.924c0-2.079-1.679-3.764-3.75-3.764h-36.183c-2.07 0-3.75 1.685-3.75 3.764v24.275c0 2.079 1.68 3.764 3.75 3.764h36.183c2.071 0 3.75-1.685 3.75-3.764z" fill="url(#b)"/>
 <path d="m2.159 13.217h43.683" fill="none" stroke="url(#c)"/>
 <path d="m31.99 21.851c-.319-.001-.639.02-.954.065l-.267 1.573c-.349.081-.689.198-1.014.347l-1.175-1.079c-.277.159-.543.337-.795.533l.556 1.496c-.262.245-.498.515-.705.808l-1.558-.348c-.159.276-.3.564-.42.86l1.229 1.018c-.104.342-.173.695-.206 1.051l-1.523.478c-.001.32.021.638.065.955l1.573.267c.081.349.198.688.347 1.014l-1.079 1.175c.159.277.338.542.533.794l1.497-.555c.244.261.515.498.807.705l-.347 1.556c.276.161.563.302.859.422l1.017-1.229c.343.104.696.173 1.053.206l.477 1.523c.32 0 .639-.022.955-.066l.267-1.573c.349-.081.689-.198 1.014-.347l1.175 1.079c.277-.159.543-.337.795-.533l-.556-1.496c.262-.244.497-.515.704-.808l1.558.348c.16-.276.301-.564.421-.86l-1.229-1.018c.104-.342.173-.694.206-1.051l1.523-.478c.001-.319-.021-.638-.065-.955l-1.574-.267c-.081-.348-.197-.688-.347-1.014l1.08-1.175c-.159-.277-.338-.542-.534-.794l-1.496.556c-.245-.262-.516-.498-.807-.705l.347-1.557c-.276-.161-.563-.302-.86-.422l-1.017 1.229c-.343-.104-.696-.173-1.052-.206zm-.282 2.901c2.162-.148 4.037 1.488 4.184 3.649.147 2.162-1.488 4.037-3.65 4.184s-4.036-1.488-4.184-3.65c-.147-2.161 1.488-4.036 3.65-4.183zm-12.972-10.485.487 2.027c.462.075.915.196 1.352.362l1.436-1.511c.375.183.736.391 1.082.625l-.591 1.998c.362.296.694.627.99.99l1.999-.591c.233.346.442.708.625 1.083l-1.512 1.435c.166.437.288.89.363 1.352l2.026.488c.029.415.029.833 0 1.249l-2.026.488c-.075.462-.197.915-.363 1.352l1.512 1.435c-.183.375-.392.737-.625 1.083l-1.999-.591c-.296.362-.628.694-.99.989l.591 1.999c-.346.233-.707.442-1.082.625l-1.436-1.512c-.437.167-.89.288-1.352.363l-.487 2.026c-.417.029-.834.029-1.25 0l-.487-2.026c-.462-.075-.915-.196-1.353-.363l-1.435 1.512c-.375-.183-.737-.392-1.082-.625l.591-1.999c-.363-.295-.694-.627-.99-.989l-1.998.591c-.234-.346-.443-.708-.626-1.083l1.511-1.435c-.165-.437-.287-.89-.362-1.352l-2.026-.488c-.03-.416-.03-.834 0-1.249l2.026-.488c.075-.462.197-.915.362-1.352l-1.511-1.435c.183-.375.392-.737.626-1.083l1.998.591c.296-.363.627-.694.99-.99l-.591-1.998c.345-.234.707-.442 1.082-.625l1.435 1.511c.438-.166.891-.287 1.353-.362l.487-2.027c.416-.029.833-.029 1.25 0zm-.625 3.755c2.83 0 5.127 2.298 5.127 5.128 0 2.829-2.297 5.127-5.127 5.127s-5.127-2.298-5.127-5.127c0-2.83 2.297-5.128 5.127-5.128z" fill="#006f7f"/>
</svg>
