<svg clip-rule="evenodd" fill-rule="evenodd" stroke-linejoin="round" stroke-miterlimit="2" viewBox="0 0 48 48" xmlns="http://www.w3.org/2000/svg">
 <linearGradient id="a" x2="1" gradientTransform="matrix(30.1001 -31.6845 31.6845 30.1001 8.02804 39.8445)" gradientUnits="userSpaceOnUse">
  <stop stop-color="#005e6c" offset="0"/>
  <stop stop-color="#00acc7" offset="1"/>
 </linearGradient>
 <linearGradient id="b" x2="1" gradientTransform="matrix(-40.9891 29.9086 -21.7748 -29.842 44.7188 9.23817)" gradientUnits="userSpaceOnUse">
  <stop stop-color="#007b8e" offset="0"/>
  <stop stop-color="#03d0df" offset="1"/>
 </linearGradient>
 <linearGradient id="c" x2="1" gradientTransform="matrix(40.1334 -42.246 42.246 40.1334 10.7041 53.126)" gradientUnits="userSpaceOnUse">
  <stop stop-color="#005e6c" offset="0"/>
  <stop stop-color="#00bddb" offset="1"/>
 </linearGradient>
 <path d="m46.841 11.91c0-2.624-2.127-4.75-4.75-4.75h-36.182c-2.623 0-4.75 2.126-4.75 4.75v24.185c0 2.622 2.127 4.749 4.75 4.749h36.183c2.622 0 4.749-2.127 4.749-4.749zm-1 0c0-2.071-1.679-3.75-3.75-3.75h-36.183c-2.07 0-3.75 1.679-3.75 3.75v24.185c0 2.07 1.68 3.75 3.75 3.75h36.183c2.071 0 3.75-1.68 3.75-3.75z" fill="url(#a)"/>
 <path d="m45.841 11.924c0-2.079-1.679-3.764-3.75-3.764h-36.183c-2.07 0-3.75 1.685-3.75 3.764v24.275c0 2.079 1.68 3.764 3.75 3.764h36.183c2.071 0 3.75-1.685 3.75-3.764z" fill="url(#b)"/>
 <path d="m2.159 13.217h43.683" fill="none" stroke="url(#c)"/>
 <path d="m29.348 16.285c-3.436 0-4.08 5.222-2.146 5.222 1.932 0 5.583-5.222 2.146-5.222zm-5.292.804c-.054 0-.111.005-.173.012-1.948.245-1.263 3.541-.226 3.603 1.002.059 2.101-3.609.397-3.615zm-3.375 1.216c-.12-.007-.252.015-.399.075-1.564.643-.237 3.297.639 3.119.795-.162.909-3.119-.24-3.194zm-2.555 2.17c-.136-.005-.283.043-.44.16-1.253.934.422 3.194 1.159 2.843.645-.306.233-2.968-.72-3.003zm7.399 2.156c-2.714-.046-6.295 1.33-6.906 4.099-.661 2.993 2.722 7.147 6.252 7.147 1.737 0 3.74-1.587 4.115-3.596.286-1.534-3.368-.919-3.238.095.158 1.216-.881 1.816-1.898 1.033-3.238-2.495 5.363-3.74 4.795-7.149-.176-1.06-1.493-1.6-3.122-1.629z" fill="#006f7f" fill-rule="nonzero"/>
</svg>
