<svg clip-rule="evenodd" fill-rule="evenodd" stroke-linejoin="round" stroke-miterlimit="2" viewBox="0 0 48 48" xmlns="http://www.w3.org/2000/svg">
 <linearGradient id="a" x2="1" gradientTransform="matrix(30.1001 -31.6845 31.6845 30.1001 8.02804 39.8445)" gradientUnits="userSpaceOnUse">
  <stop stop-color="#005e6c" offset="0"/>
  <stop stop-color="#00acc7" offset="1"/>
 </linearGradient>
 <linearGradient id="b" x2="1" gradientTransform="matrix(-40.9891 29.9086 -21.7748 -29.842 44.7188 9.23817)" gradientUnits="userSpaceOnUse">
  <stop stop-color="#007b8e" offset="0"/>
  <stop stop-color="#03d0df" offset="1"/>
 </linearGradient>
 <linearGradient id="c" x2="1" gradientTransform="matrix(40.1334 -42.246 42.246 40.1334 10.7041 53.126)" gradientUnits="userSpaceOnUse">
  <stop stop-color="#005e6c" offset="0"/>
  <stop stop-color="#00bddb" offset="1"/>
 </linearGradient>
 <path d="m46.841 11.91c0-2.624-2.127-4.75-4.75-4.75h-36.182c-2.623 0-4.75 2.126-4.75 4.75v24.185c0 2.622 2.127 4.749 4.75 4.749h36.183c2.622 0 4.749-2.127 4.749-4.749zm-1 0c0-2.071-1.679-3.75-3.75-3.75h-36.183c-2.07 0-3.75 1.679-3.75 3.75v24.185c0 2.07 1.68 3.75 3.75 3.75h36.183c2.071 0 3.75-1.68 3.75-3.75z" fill="url(#a)"/>
 <path d="m45.841 11.924c0-2.079-1.679-3.764-3.75-3.764h-36.183c-2.07 0-3.75 1.685-3.75 3.764v24.275c0 2.079 1.68 3.764 3.75 3.764h36.183c2.071 0 3.75-1.685 3.75-3.764z" fill="url(#b)"/>
 <path d="m2.159 13.217h43.683" fill="none" stroke="url(#c)"/>
 <path d="m24 16.636c-4.855 0-8.791 3.936-8.791 8.791s3.936 8.791 8.791 8.791 8.791-3.936 8.791-8.791-3.936-8.791-8.791-8.791zm-.8.933c.103-.011.234.006.341 0 .012.05-.077.227-.196.486-.757 1.652-.799 3.588-.098 4.622.129.188.244.366.244.389 0 .024-.137.05-.291.05-.364 0-.709-.222-1.412-.779-.313-.247-.719-.454-.877-.486-.245-.05-.312-.028-.632.29-.296.299-.388.458-.388.731 0 1.033 1.225 1.853 3.502 2.336 3.094.655 3.855 1.244 3.941 2.87.108 2.04-.978 3.577-3.356 4.768-.286.142-.465.198-.585.244-.053-.005-.093.004-.146 0-.019-.064-.049-.21-.049-.488 0-1.083-.426-2.197-1.069-2.82-.173-.168-.656-.522-1.071-.778-.414-.259-.83-.555-.925-.682-.154-.211-.166-.34-.047-.73.215-.711.472-1.108.972-1.557.262-.236.526-.433.585-.439.057-.004-.335-.122-.925-.242-.59-.122-1.452-.373-1.898-.536-.814-.293-1.915-.913-2.335-1.361-.018-.02-.032-.032-.048-.05.602-2.393 2.287-4.356 4.525-5.302.467-.199.949-.334 1.459-.438.253-.052.515-.071.777-.097zm7.298 3.649c.182.113.872 1.606 1.069 2.335.255.941.237 2.569 0 3.503-.09.357-.205.688-.243.729-.038.043-.177-.196-.341-.486-.162-.289-.684-.904-1.119-1.362-1.252-1.321-1.449-2.011-.923-3.065.263-.532 1.415-1.741 1.557-1.654z" fill="#006f7f" fill-rule="nonzero"/>
</svg>
