<svg clip-rule="evenodd" fill-rule="evenodd" stroke-linejoin="round" stroke-miterlimit="2" viewBox="0 0 48 48" xmlns="http://www.w3.org/2000/svg">
 <linearGradient id="a" x2="1" gradientTransform="matrix(30.1001 -31.6845 31.6845 30.1001 8.02804 39.8445)" gradientUnits="userSpaceOnUse">
  <stop stop-color="#005e6c" offset="0"/>
  <stop stop-color="#00acc7" offset="1"/>
 </linearGradient>
 <linearGradient id="b" x2="1" gradientTransform="matrix(-40.9891 29.9086 -21.7748 -29.842 44.7188 9.23817)" gradientUnits="userSpaceOnUse">
  <stop stop-color="#007b8e" offset="0"/>
  <stop stop-color="#03d0df" offset="1"/>
 </linearGradient>
 <linearGradient id="c" x2="1" gradientTransform="matrix(40.1334 -42.246 42.246 40.1334 10.7041 53.126)" gradientUnits="userSpaceOnUse">
  <stop stop-color="#005e6c" offset="0"/>
  <stop stop-color="#00bddb" offset="1"/>
 </linearGradient>
 <path d="m46.841 11.91c0-2.624-2.127-4.75-4.75-4.75h-36.182c-2.623 0-4.75 2.126-4.75 4.75v24.185c0 2.622 2.127 4.749 4.75 4.749h36.183c2.622 0 4.749-2.127 4.749-4.749zm-1 0c0-2.071-1.679-3.75-3.75-3.75h-36.183c-2.07 0-3.75 1.679-3.75 3.75v24.185c0 2.07 1.68 3.75 3.75 3.75h36.183c2.071 0 3.75-1.68 3.75-3.75z" fill="url(#a)"/>
 <path d="m45.841 11.924c0-2.079-1.679-3.764-3.75-3.764h-36.183c-2.07 0-3.75 1.685-3.75 3.764v24.275c0 2.079 1.68 3.764 3.75 3.764h36.183c2.071 0 3.75-1.685 3.75-3.764z" fill="url(#b)"/>
 <path d="m2.159 13.217h43.683" fill="none" stroke="url(#c)"/>
 <path d="m11.163 26.38 6.147 3.55c-.007.092-.011.185-.011.278 0 2.22 1.8 4.02 4.02 4.02 2.221 0 4.021-1.8 4.021-4.02-.003-.184-.017-.366-.044-.547l4.875-3.482c2.533-.076 4.547-2.15 4.549-4.683 0-2.589-2.099-4.689-4.689-4.689-2.591 0-4.692 2.1-4.691 4.708l-3.112 4.782c-.297-.071-.603-.109-.909-.11-.606.001-1.206.141-1.751.406l-6.289-3.63m16.752-4.817c1.85 0 3.35 1.5 3.35 3.35 0 1.851-1.5 3.351-3.35 3.351-1.851 0-3.351-1.5-3.351-3.351 0-1.85 1.5-3.35 3.351-3.35zm0 1.34c-1.11 0-2.011.901-2.011 2.01 0 1.11.901 2.011 2.011 2.011 1.109 0 2.01-.901 2.01-2.011 0-1.109-.901-2.01-2.01-2.01zm-8.712 8.041c1.482 0 2.681 1.199 2.681 2.681 0 1.48-1.199 2.679-2.681 2.679-1.278-.001-2.376-.906-2.625-2.158l.945.547c.965.555 2.189.228 2.746-.736.556-.965.229-2.189-.735-2.746l-.453-.262c.041-.002.081-.003.123-.005z" fill="#006f7f" fill-rule="nonzero"/>
</svg>
