<svg clip-rule="evenodd" fill-rule="evenodd" stroke-linejoin="round" stroke-miterlimit="2" viewBox="0 0 48 48" xmlns="http://www.w3.org/2000/svg">
 <linearGradient id="a" x2="1" gradientTransform="matrix(30.1001 -31.6845 31.6845 30.1001 8.02804 39.8445)" gradientUnits="userSpaceOnUse">
  <stop stop-color="#005e6c" offset="0"/>
  <stop stop-color="#00acc7" offset="1"/>
 </linearGradient>
 <linearGradient id="b" x2="1" gradientTransform="matrix(-40.9891 29.9086 -21.7748 -29.842 44.7188 9.23817)" gradientUnits="userSpaceOnUse">
  <stop stop-color="#007b8e" offset="0"/>
  <stop stop-color="#03d0df" offset="1"/>
 </linearGradient>
 <linearGradient id="c" x2="1" gradientTransform="matrix(40.1334 -42.246 42.246 40.1334 10.7041 53.126)" gradientUnits="userSpaceOnUse">
  <stop stop-color="#005e6c" offset="0"/>
  <stop stop-color="#00bddb" offset="1"/>
 </linearGradient>
 <path d="m46.841 11.91c0-2.624-2.127-4.75-4.75-4.75h-36.182c-2.623 0-4.75 2.126-4.75 4.75v24.185c0 2.622 2.127 4.749 4.75 4.749h36.183c2.622 0 4.749-2.127 4.749-4.749zm-1 0c0-2.071-1.679-3.75-3.75-3.75h-36.183c-2.07 0-3.75 1.679-3.75 3.75v24.185c0 2.07 1.68 3.75 3.75 3.75h36.183c2.071 0 3.75-1.68 3.75-3.75z" fill="url(#a)"/>
 <path d="m45.841 11.924c0-2.079-1.679-3.764-3.75-3.764h-36.183c-2.07 0-3.75 1.685-3.75 3.764v24.275c0 2.079 1.68 3.764 3.75 3.764h36.183c2.071 0 3.75-1.685 3.75-3.764z" fill="url(#b)"/>
 <path d="m2.159 13.217h43.683" fill="none" stroke="url(#c)"/>
 <path d="m28.647 27.939c-1.708.301-3.234.752-4.464 1.013v1.092l7.302-.112.755-1.74s-1.293-.659-3.593-.253zm-9.294 0c1.708.301 3.234.752 4.464 1.013v1.092l-6.934-.112-1.123-1.74s1.293-.659 3.593-.253zm9.434-9.801c-2.162.645-4.604 1.881-4.604 1.881l.036 8.665s2.091-.681 4.4-1.325c2.153-.6 3.621.155 3.621.155v-8.647s-1.247-1.388-3.453-.729zm-9.574 0c2.162.645 4.604 1.881 4.604 1.881l-.036 8.665s-2.091-.681-4.4-1.325c-2.153-.6-3.621.155-3.621.155v-8.647s1.247-1.388 3.453-.729z" fill="#006f7f" fill-rule="nonzero"/>
</svg>
