<svg clip-rule="evenodd" fill-rule="evenodd" stroke-linejoin="round" stroke-miterlimit="2" viewBox="0 0 48 48" xmlns="http://www.w3.org/2000/svg">
 <linearGradient id="a" x2="1" gradientTransform="matrix(-41.8141 30.5106 -22.2131 -30.4426 45.1358 8.93981)" gradientUnits="userSpaceOnUse">
  <stop stop-color="#474747" offset="0"/>
  <stop stop-color="#717171" offset="1"/>
 </linearGradient>
 <linearGradient id="b" x2="1" gradientTransform="matrix(40.1334 -42.246 42.246 40.1334 10.7041 53.126)" gradientUnits="userSpaceOnUse">
  <stop stop-color="#363636" offset="0"/>
  <stop stop-color="#646464" offset="1"/>
 </linearGradient>
 <path d="m46.281 11.68c0-2.121-1.713-3.84-3.825-3.84h-36.912c-2.112 0-3.825 1.719-3.825 3.84v24.763c0 2.121 1.713 3.84 3.825 3.84h36.912c2.112 0 3.825-1.719 3.825-3.84z" fill="url(#a)"/>
 <path d="m46.841 11.91c0-2.624-2.127-4.75-4.75-4.75h-36.182c-2.623 0-4.75 2.126-4.75 4.75v24.185c0 2.622 2.127 4.749 4.75 4.749h36.183c2.622 0 4.749-2.127 4.749-4.749zm-1 1.119v.688h-43.682v-.312 22.69c0 2.07 1.679 3.75 3.75 3.75h36.183c2.07 0 3.749-1.68 3.749-3.75zm0-.312v-.807c0-2.072-1.679-3.75-3.75-3.75h-36.183c-2.07 0-3.75 1.678-3.75 3.75v.807z" fill="url(#b)"/>
</svg>
