<svg clip-rule="evenodd" fill-rule="evenodd" stroke-linejoin="round" stroke-miterlimit="2" viewBox="0 0 48 48" xmlns="http://www.w3.org/2000/svg">
 <linearGradient id="a" x2="1" gradientTransform="matrix(30.1001 -31.6845 31.6845 30.1001 8.02804 39.8445)" gradientUnits="userSpaceOnUse">
  <stop stop-color="#005e6c" offset="0"/>
  <stop stop-color="#00acc7" offset="1"/>
 </linearGradient>
 <linearGradient id="b" x2="1" gradientTransform="matrix(-40.9891 29.9086 -21.7748 -29.842 44.7188 9.23817)" gradientUnits="userSpaceOnUse">
  <stop stop-color="#007b8e" offset="0"/>
  <stop stop-color="#03d0df" offset="1"/>
 </linearGradient>
 <linearGradient id="c" x2="1" gradientTransform="matrix(40.1334 -42.246 42.246 40.1334 10.7041 53.126)" gradientUnits="userSpaceOnUse">
  <stop stop-color="#005e6c" offset="0"/>
  <stop stop-color="#00bddb" offset="1"/>
 </linearGradient>
 <path d="m46.841 11.91c0-2.624-2.127-4.75-4.75-4.75h-36.182c-2.623 0-4.75 2.126-4.75 4.75v24.185c0 2.622 2.127 4.749 4.75 4.749h36.183c2.622 0 4.749-2.127 4.749-4.749zm-1 0c0-2.071-1.679-3.75-3.75-3.75h-36.183c-2.07 0-3.75 1.679-3.75 3.75v24.185c0 2.07 1.68 3.75 3.75 3.75h36.183c2.071 0 3.75-1.68 3.75-3.75z" fill="url(#a)"/>
 <path d="m45.841 11.924c0-2.079-1.679-3.764-3.75-3.764h-36.183c-2.07 0-3.75 1.685-3.75 3.764v24.275c0 2.079 1.68 3.764 3.75 3.764h36.183c2.071 0 3.75-1.685 3.75-3.764z" fill="url(#b)"/>
 <path d="m2.159 13.217h43.683" fill="none" stroke="url(#c)"/>
 <path d="m24.68 15.694c-.453-.032-.907-.032-1.36 0l-.531 2.207c-.503.081-.996.214-1.473.394l-1.563-1.645c-.408.199-.801.426-1.178.68l.644 2.176c-.395.322-.756.683-1.078 1.078l-2.177-.643c-.253.376-.481.77-.68 1.178l1.646 1.563c-.181.477-.313.969-.395 1.473l-2.206.53c-.032.453-.032.908 0 1.361l2.206.53c.082.504.214.997.395 1.473l-1.646 1.563c.199.408.427.802.68 1.179l2.177-.644c.322.395.683.755 1.078 1.078l-.644 2.176c.377.254.77.481 1.178.68l1.563-1.645c.477.181.97.313 1.473.395l.531 2.205c.453.033.907.033 1.36 0l.531-2.205c.503-.082.996-.214 1.472-.395l1.563 1.645c.409-.199.802-.426 1.179-.68l-.644-2.176c.395-.323.756-.683 1.078-1.078l2.177.644c.253-.377.481-.771.68-1.179l-1.646-1.563c.181-.476.313-.969.395-1.473l2.206-.53c.032-.453.032-.908 0-1.361l-2.206-.53c-.082-.504-.214-.996-.395-1.473l1.646-1.563c-.199-.408-.427-.802-.681-1.178l-2.176.643c-.322-.395-.683-.755-1.078-1.078l.644-2.176c-.377-.254-.771-.481-1.179-.68l-1.563 1.646c-.476-.181-.969-.314-1.472-.395l-.531-2.206zm-.68 4.088c3.081 0 5.583 2.501 5.583 5.583 0 3.081-2.502 5.582-5.583 5.582s-5.583-2.501-5.583-5.582c0-3.082 2.502-5.583 5.583-5.583z" fill="#006f7f"/>
</svg>
