<svg clip-rule="evenodd" fill-rule="evenodd" stroke-linejoin="round" stroke-miterlimit="2" viewBox="0 0 48 48" xmlns="http://www.w3.org/2000/svg">
 <linearGradient id="a" x2="1" gradientTransform="matrix(30.1001 -31.6845 31.6845 30.1001 8.02804 39.8445)" gradientUnits="userSpaceOnUse">
  <stop stop-color="#005e6c" offset="0"/>
  <stop stop-color="#00acc7" offset="1"/>
 </linearGradient>
 <linearGradient id="b" x2="1" gradientTransform="matrix(-40.9891 29.9086 -21.7748 -29.842 44.7188 9.23817)" gradientUnits="userSpaceOnUse">
  <stop stop-color="#007b8e" offset="0"/>
  <stop stop-color="#03d0df" offset="1"/>
 </linearGradient>
 <linearGradient id="c" x2="1" gradientTransform="matrix(40.1334 -42.246 42.246 40.1334 10.7041 53.126)" gradientUnits="userSpaceOnUse">
  <stop stop-color="#005e6c" offset="0"/>
  <stop stop-color="#00bddb" offset="1"/>
 </linearGradient>
 <path d="m46.841 11.91c0-2.624-2.127-4.75-4.75-4.75h-36.182c-2.623 0-4.75 2.126-4.75 4.75v24.185c0 2.622 2.127 4.749 4.75 4.749h36.183c2.622 0 4.749-2.127 4.749-4.749zm-1 0c0-2.071-1.679-3.75-3.75-3.75h-36.183c-2.07 0-3.75 1.679-3.75 3.75v24.185c0 2.07 1.68 3.75 3.75 3.75h36.183c2.071 0 3.75-1.68 3.75-3.75z" fill="url(#a)"/>
 <path d="m45.841 11.924c0-2.079-1.679-3.764-3.75-3.764h-36.183c-2.07 0-3.75 1.685-3.75 3.764v24.275c0 2.079 1.68 3.764 3.75 3.764h36.183c2.071 0 3.75-1.685 3.75-3.764z" fill="url(#b)"/>
 <path d="m2.159 13.217h43.683" fill="none" stroke="url(#c)"/>
 <path d="m24 27.098h-7.594v1.654h7.594zm4.868-.688-12.462.002v-3.977c0-1.507.062-2.49.184-2.947.185-.704.585-1.293 1.202-1.767.617-.475 1.413-.712 2.39-.712.754 0 1.387.137 1.901.411.513.273.917.621 1.21 1.042s.487.85.582 1.285c.117.592.176 1.449.176 2.571v1.092h4.817c.15-.34.311-.669.551-.949 1.14-1.35 3.05-1.431 4.16-.051.24.29.409.65.539 1h-2.25c-.46 0-.75.44-.75 1v1c0 .55.29 1 .75 1h2.25c-.14.35-.36.71-.6 1-1.15 1.34-2.979 1.329-4.099-.051-.23-.29-.421-.609-.551-.949zm-10.385-3.019h3.483v-.814c0-.977-.065-1.63-.193-1.959s-.329-.588-.603-.775c-.273-.187-.591-.28-.954-.28-.447 0-.815.131-1.105.393-.291.263-.472.595-.545.997-.055.296-.083.89-.083 1.783z" fill="#006f7f" fill-rule="nonzero"/>
</svg>
