<svg clip-rule="evenodd" fill-rule="evenodd" stroke-linejoin="round" stroke-miterlimit="2" viewBox="0 0 48 48" xmlns="http://www.w3.org/2000/svg">
 <linearGradient id="a" x2="1" gradientTransform="matrix(30.1001 -31.6845 31.6845 30.1001 8.02804 39.8445)" gradientUnits="userSpaceOnUse">
  <stop stop-color="#005e6c" offset="0"/>
  <stop stop-color="#00acc7" offset="1"/>
 </linearGradient>
 <linearGradient id="b" x2="1" gradientTransform="matrix(-40.9891 29.9086 -21.7748 -29.842 44.7188 9.23817)" gradientUnits="userSpaceOnUse">
  <stop stop-color="#007b8e" offset="0"/>
  <stop stop-color="#03d0df" offset="1"/>
 </linearGradient>
 <linearGradient id="c" x2="1" gradientTransform="matrix(40.1334 -42.246 42.246 40.1334 10.7041 53.126)" gradientUnits="userSpaceOnUse">
  <stop stop-color="#005e6c" offset="0"/>
  <stop stop-color="#00bddb" offset="1"/>
 </linearGradient>
 <path d="m46.841 11.91c0-2.624-2.127-4.75-4.75-4.75h-36.182c-2.623 0-4.75 2.126-4.75 4.75v24.185c0 2.622 2.127 4.749 4.75 4.749h36.183c2.622 0 4.749-2.127 4.749-4.749zm-1 0c0-2.071-1.679-3.75-3.75-3.75h-36.183c-2.07 0-3.75 1.679-3.75 3.75v24.185c0 2.07 1.68 3.75 3.75 3.75h36.183c2.071 0 3.75-1.68 3.75-3.75z" fill="url(#a)"/>
 <path d="m45.841 11.924c0-2.079-1.679-3.764-3.75-3.764h-36.183c-2.07 0-3.75 1.685-3.75 3.764v24.275c0 2.079 1.68 3.764 3.75 3.764h36.183c2.071 0 3.75-1.685 3.75-3.764z" fill="url(#b)"/>
 <path d="m2.159 13.217h43.683" fill="none" stroke="url(#c)"/>
 <path d="m25.127 17.288c-.881-.06-1.782.025-2.669.264-3.55.958-6.031 4.182-6.044 7.858l.003.03h-1.17l2.334 2.334 2.335-2.334h-1.167v-.021c.009-2.635 1.771-4.928 4.315-5.615 2.545-.686 5.221.41 6.555 2.684 1.333 2.273.983 5.142-.858 7.028-1.793 1.837-4.764 2.041-7.112.739-.174-.096-.368-.146-.566-.146-.64 0-1.167.527-1.167 1.167 0 .424.231.816.602 1.022 3.172 1.758 7.299 1.528 9.915-1.152 2.568-2.631 3.059-6.668 1.199-9.839-1.396-2.379-3.861-3.841-6.504-4.019zm-.56 3.467c-.64.01-1.158.544-1.149 1.183v3.342c-.025.197.001.398.075.582.077.208.211.39.387.524l2.214 2.214c.22.229.524.359.842.359.641 0 1.167-.527 1.167-1.168 0-.317-.129-.622-.358-.842l-1.993-1.992v-3.035c0-.64-.527-1.167-1.167-1.167z" fill="#006f7f" fill-rule="nonzero"/>
</svg>
