<svg clip-rule="evenodd" fill-rule="evenodd" stroke-linejoin="round" stroke-miterlimit="2" viewBox="0 0 48 48" xmlns="http://www.w3.org/2000/svg">
 <linearGradient id="a" x2="1" gradientTransform="matrix(30.1001 -31.6845 31.6845 30.1001 8.02804 39.8445)" gradientUnits="userSpaceOnUse">
  <stop stop-color="#005e6c" offset="0"/>
  <stop stop-color="#00acc7" offset="1"/>
 </linearGradient>
 <linearGradient id="b" x2="1" gradientTransform="matrix(-40.9891 29.9086 -21.7748 -29.842 44.7188 9.23817)" gradientUnits="userSpaceOnUse">
  <stop stop-color="#007b8e" offset="0"/>
  <stop stop-color="#03d0df" offset="1"/>
 </linearGradient>
 <linearGradient id="c" x2="1" gradientTransform="matrix(40.1334 -42.246 42.246 40.1334 10.7041 53.126)" gradientUnits="userSpaceOnUse">
  <stop stop-color="#005e6c" offset="0"/>
  <stop stop-color="#00bddb" offset="1"/>
 </linearGradient>
 <path d="m46.841 11.91c0-2.624-2.127-4.75-4.75-4.75h-36.182c-2.623 0-4.75 2.126-4.75 4.75v24.185c0 2.622 2.127 4.749 4.75 4.749h36.183c2.622 0 4.749-2.127 4.749-4.749zm-1 0c0-2.071-1.679-3.75-3.75-3.75h-36.183c-2.07 0-3.75 1.679-3.75 3.75v24.185c0 2.07 1.68 3.75 3.75 3.75h36.183c2.071 0 3.75-1.68 3.75-3.75z" fill="url(#a)"/>
 <path d="m45.841 11.924c0-2.079-1.679-3.764-3.75-3.764h-36.183c-2.07 0-3.75 1.685-3.75 3.764v24.275c0 2.079 1.68 3.764 3.75 3.764h36.183c2.071 0 3.75-1.685 3.75-3.764z" fill="url(#b)"/>
 <path d="m2.159 13.217h43.683" fill="none" stroke="url(#c)"/>
 <path d="m20.433 34.052h-.002c-.594 0-1.038-.528-.918-1.092l.78-4.127c.055-.257.167-.5.331-.71l2.142-2.806-.025-3.799-3.213 2.901c-.949.77-1.858-.156-1.049-1.038.006-.005 4.414-4.11 4.414-4.11v-.001l1.907-.496c.228-.051.594-.091.796.025l3.323 2.047c.686.419.875.752.915 1.48v2.187c0 .442-.186.781-.643.781-.456 0-.643-.361-.643-.781v-2.031c0-.358-.743-.687-1.024-.846l-1.396-.68.097 2.958c.004.064.163 4.785.163 4.785.004.086.027.298.095.351l2.774 2.126c.463.377.501.888.208 1.311-.334.483-1.026.577-1.485.204l-3.086-2.444c-.247-.201-.403-.491-.431-.803l-.088-2.907-1.833 2.13c-.1.113-.15.297-.183.441l-1.01 4.23c-.094.416-.475.714-.916.714zm3.231-15.685c-.875.046-1.622-.604-1.669-1.454-.047-.847.623-1.572 1.497-1.619.875-.046 1.622.604 1.668 1.453.048.849-.622 1.574-1.496 1.62z" fill="#006f7f"/>
</svg>
