<svg clip-rule="evenodd" fill-rule="evenodd" stroke-linejoin="round" stroke-miterlimit="2" viewBox="0 0 48 48" xmlns="http://www.w3.org/2000/svg">
 <linearGradient id="a" x2="1" gradientTransform="matrix(30.1001 -31.6845 31.6845 30.1001 234.889 255.361)" gradientUnits="userSpaceOnUse">
  <stop stop-color="#005e6c" offset="0"/>
  <stop stop-color="#00acc7" offset="1"/>
 </linearGradient>
 <linearGradient id="b" x2="1" gradientTransform="matrix(-40.9891 29.9086 -29.9086 -40.9891 -132.964 -234.273)" gradientUnits="userSpaceOnUse">
  <stop stop-color="#007b8e" offset="0"/>
  <stop stop-color="#03d0df" offset="1"/>
 </linearGradient>
 <linearGradient id="c" x2="1" gradientTransform="matrix(40.1334 -42.246 42.246 40.1334 569.069 583.569)" gradientUnits="userSpaceOnUse">
  <stop stop-color="#005e6c" offset="0"/>
  <stop stop-color="#00bddb" offset="1"/>
 </linearGradient>
 <path d="m46.841 11.91c0-2.624-2.127-4.75-4.75-4.75h-36.182c-2.623 0-4.75 2.126-4.75 4.75v24.185c0 2.622 2.127 4.749 4.75 4.749h36.183c2.622 0 4.749-2.127 4.749-4.749zm-1 0c0-2.071-1.679-3.75-3.75-3.75h-36.183c-2.07 0-3.75 1.679-3.75 3.75v24.185c0 2.07 1.68 3.75 3.75 3.75h36.183c2.071 0 3.75-1.68 3.75-3.75z" fill="url(#a)"/>
 <path d="m45.841 11.924c0-2.079-1.679-3.764-3.75-3.764h-36.183c-2.07 0-3.75 1.685-3.75 3.764v24.275c0 2.079 1.68 3.764 3.75 3.764h36.183c2.071 0 3.75-1.685 3.75-3.764z" fill="url(#b)"/>
 <path d="m2.159 13.217h43.683" fill="none" stroke="url(#c)"/>
 <path d="m35.586 24.993v9.233c0 .135-.073.26-.188.326-.116.065-.258.061-.369-.012-1.251-.812-4.249-2.759-5.183-3.366-.177-.115-.285-.314-.287-.528-.005-.495-.012-1.403-.017-1.897-.002-.214.102-.415.276-.532.931-.633 3.945-2.678 5.205-3.534.111-.076.254-.082.372-.018.117.066.191.191.191.328zm-9.2.488h-11.78v6.128c0 1.241 1.006 2.246 2.247 2.246h11.571v-6.335c0-1.126-.912-2.039-2.038-2.039zm-10.533 1.247v4.881c0 .552.447.999 1 .999h10.324v-5.088c0-.438-.354-.792-.791-.792zm5.662-8.09c.74-.909 1.868-1.49 3.13-1.49 2.227 0 4.036 1.808 4.036 4.035s-1.809 4.035-4.036 4.035c-1.262 0-2.39-.581-3.13-1.49-.74.909-1.868 1.49-3.131 1.49-2.227 0-4.035-1.808-4.035-4.035s1.808-4.035 4.035-4.035c1.263 0 2.391.581 3.131 1.49z" fill="#006f7f"/>
</svg>
