<svg clip-rule="evenodd" fill-rule="evenodd" stroke-linejoin="round" stroke-miterlimit="2" viewBox="0 0 48 48" xmlns="http://www.w3.org/2000/svg">
 <linearGradient id="a" x2="1" gradientTransform="matrix(30.1001 -31.6845 31.6845 30.1001 8.02804 39.8445)" gradientUnits="userSpaceOnUse">
  <stop stop-color="#005e6c" offset="0"/>
  <stop stop-color="#00acc7" offset="1"/>
 </linearGradient>
 <linearGradient id="b" x2="1" gradientTransform="matrix(-40.9891 29.9086 -21.7748 -29.842 44.7188 9.23817)" gradientUnits="userSpaceOnUse">
  <stop stop-color="#007b8e" offset="0"/>
  <stop stop-color="#03d0df" offset="1"/>
 </linearGradient>
 <linearGradient id="c" x2="1" gradientTransform="matrix(40.1334 -42.246 42.246 40.1334 10.7041 53.126)" gradientUnits="userSpaceOnUse">
  <stop stop-color="#005e6c" offset="0"/>
  <stop stop-color="#00bddb" offset="1"/>
 </linearGradient>
 <path d="m46.841 11.91c0-2.624-2.127-4.75-4.75-4.75h-36.182c-2.623 0-4.75 2.126-4.75 4.75v24.185c0 2.622 2.127 4.749 4.75 4.749h36.183c2.622 0 4.749-2.127 4.749-4.749zm-1 0c0-2.071-1.679-3.75-3.75-3.75h-36.183c-2.07 0-3.75 1.679-3.75 3.75v24.185c0 2.07 1.68 3.75 3.75 3.75h36.183c2.071 0 3.75-1.68 3.75-3.75z" fill="url(#a)"/>
 <path d="m45.841 11.924c0-2.079-1.679-3.764-3.75-3.764h-36.183c-2.07 0-3.75 1.685-3.75 3.764v24.275c0 2.079 1.68 3.764 3.75 3.764h36.183c2.071 0 3.75-1.685 3.75-3.764z" fill="url(#b)"/>
 <path d="m2.159 13.217h43.683" fill="none" stroke="url(#c)"/>
 <path d="m17.623 15.474c-.366.002-.788.118-1.219.365-1.57.883-3.015 3.777-3.799 7.529-.669 3.187-.913 7.542-.515 9.294.347 1.507.946 2.175 2.013 2.175 1.583-.029 3.574-1.913 4.834-4.449.912-1.403 3.025-2.042 5.063-1.971 2.038-.077 4.151.568 5.063 1.971 1.26 2.535 3.251 4.419 4.834 4.449 1.067 0 1.666-.668 2.013-2.175.398-1.752.154-6.107-.515-9.294-.784-3.752-2.229-6.646-3.799-7.529-.43-.247-.826-.366-1.191-.365-.364.002-.697.125-1.011.365-.798.608-2.461 1.26-5.394 1.262s-4.596-.654-5.394-1.262c-.314-.24-.617-.367-.983-.365zm.326 3.631h2.42v2.42h2.421v2.42h-2.421v2.42h-2.42v-2.42h-2.42v-2.42h2.42zm10.892 0c.668 0 1.21.542 1.21 1.209 0 .669-.542 1.211-1.21 1.211-.669 0-1.21-.542-1.21-1.21s.541-1.21 1.21-1.21zm-2.421 2.42c.669 0 1.211.542 1.211 1.21s-.542 1.21-1.211 1.21c-.668 0-1.209-.542-1.209-1.21s.541-1.21 1.209-1.21zm4.841 0c.668 0 1.21.542 1.21 1.21s-.542 1.21-1.21 1.21-1.21-.542-1.21-1.21.542-1.21 1.21-1.21zm-2.42 2.42c.668 0 1.21.543 1.21 1.211 0 .667-.542 1.21-1.21 1.21-.669 0-1.21-.543-1.21-1.21 0-.668.541-1.211 1.21-1.211z" fill="#006f7f" fill-rule="nonzero"/>
</svg>
