<svg clip-rule="evenodd" fill-rule="evenodd" stroke-linecap="round" stroke-linejoin="round" stroke-miterlimit="1.5" viewBox="0 0 48 48" xmlns="http://www.w3.org/2000/svg">
 <linearGradient id="a" x2="1" gradientTransform="matrix(0 -28.2292 28.2292 0 24.0309 32.099)" gradientUnits="userSpaceOnUse">
  <stop stop-color="#00646f" offset="0"/>
  <stop stop-color="#0b7cd4" offset="1"/>
 </linearGradient>
 <linearGradient id="b" x2="1" gradientTransform="matrix(0 -32.6433 32.6433 0 23.9955 45.4308)" gradientUnits="userSpaceOnUse">
  <stop stop-color="#007b8e" offset="0"/>
  <stop stop-color="#03d0df" offset="1"/>
 </linearGradient>
 <linearGradient id="c" x2="1" gradientTransform="matrix(0 12.8839 -12.8839 0 -1079.34 32.5468)" gradientUnits="userSpaceOnUse">
  <stop stop-color="#aad2ff" offset="0"/>
  <stop stop-color="#56eede" offset="1"/>
 </linearGradient>
 <radialGradient id="d" cx="0" cy="0" r="1" gradientTransform="matrix(0 32.3118 -27.0141 0 23.9856 7.3276)" gradientUnits="userSpaceOnUse">
  <stop stop-color="#eef87e" offset="0"/>
  <stop stop-color="#cde34f" offset=".26"/>
  <stop stop-color="#93b723" offset=".66"/>
  <stop stop-color="#5a7e0d" offset="1"/>
 </radialGradient>
 <path d="m45.14 34.093-42.289-.029v-14.106c0-.77.368-1.494.99-1.948 3.418-2.495 14.736-10.756 18.738-13.677.844-.616 1.99-.618 2.837-.004 4.002 2.901 15.303 11.093 18.727 13.576.626.453.997 1.179.997 1.952z" fill="url(#a)"/>
 <path d="m25.104 31.79c-.682.412-1.536.413-2.218.001-4.353-2.63-20.035-12.102-20.035-12.102v23.111c0 1.453 1.178 2.631 2.631 2.631h37.121c.673 0 1.318-.267 1.794-.743.475-.476.743-1.121.743-1.794v-23.231s-15.683 9.492-20.036 12.127z" fill="url(#b)"/>
 <path d="m3.901 44.609c-.499-.899-.517-1.814.524-2.355 3.114-1.618 15.485-8.194 18.768-9.94.501-.267 1.103-.266 1.604.003 3.255 1.744 15.45 8.281 18.544 9.937 1.232.66 1.397 1.784.865 2.355" fill="none" stroke="url(#c)" stroke-width=".38"/>
 <path d="m32.986 18.348-9.013 11.143-8.968-11.143h3.866v-9.179h10.249v9.179z" fill="url(#d)" fill-rule="nonzero"/>
</svg>
