<svg clip-rule="evenodd" fill-rule="evenodd" stroke-linejoin="round" stroke-miterlimit="2" viewBox="0 0 48 48" xmlns="http://www.w3.org/2000/svg">
 <linearGradient id="a" x2="1" gradientTransform="matrix(30.1001 -31.6845 31.6845 30.1001 8.02804 39.8445)" gradientUnits="userSpaceOnUse">
  <stop stop-color="#005e6c" offset="0"/>
  <stop stop-color="#00acc7" offset="1"/>
 </linearGradient>
 <linearGradient id="b" x2="1" gradientTransform="matrix(-40.9891 29.9086 -21.7748 -29.842 44.7188 9.23817)" gradientUnits="userSpaceOnUse">
  <stop stop-color="#007b8e" offset="0"/>
  <stop stop-color="#03d0df" offset="1"/>
 </linearGradient>
 <linearGradient id="c" x2="1" gradientTransform="matrix(40.1334 -42.246 42.246 40.1334 10.7041 53.126)" gradientUnits="userSpaceOnUse">
  <stop stop-color="#005e6c" offset="0"/>
  <stop stop-color="#00bddb" offset="1"/>
 </linearGradient>
 <path d="m46.841 11.91c0-2.624-2.127-4.75-4.75-4.75h-36.182c-2.623 0-4.75 2.126-4.75 4.75v24.185c0 2.622 2.127 4.749 4.75 4.749h36.183c2.622 0 4.749-2.127 4.749-4.749zm-1 0c0-2.071-1.679-3.75-3.75-3.75h-36.183c-2.07 0-3.75 1.679-3.75 3.75v24.185c0 2.07 1.68 3.75 3.75 3.75h36.183c2.071 0 3.75-1.68 3.75-3.75z" fill="url(#a)"/>
 <path d="m45.841 11.924c0-2.079-1.679-3.764-3.75-3.764h-36.183c-2.07 0-3.75 1.685-3.75 3.764v24.275c0 2.079 1.68 3.764 3.75 3.764h36.183c2.071 0 3.75-1.685 3.75-3.764z" fill="url(#b)"/>
 <path d="m2.159 13.217h43.683" fill="none" stroke="url(#c)"/>
 <path d="m22.237 31.982c0 .948.79 1.717 1.763 1.717s1.763-.77 1.763-1.717c-.298-2.438-3.469-1.816-3.526 0zm1.763-5.554c-1.898 0-3.69.816-4.916 2.237-.381.44-.321 1.098.132 1.468.2.165.444.245.687.245.306 0 .609-.127.82-.372.818-.949 2.013-1.493 3.277-1.493s2.458.544 3.277 1.493c.212.246.515.372.819.372.244 0 .488-.08.688-.245.454-.37.512-1.028.131-1.468-1.225-1.421-3.017-2.237-4.915-2.237zm0-4.586c-3.162 0-6.148 1.359-8.193 3.728-.38.441-.322 1.098.131 1.468.2.165.445.245.688.245.306 0 .609-.126.82-.372 1.636-1.896 4.026-2.985 6.554-2.985s4.917 1.089 6.554 2.985c.212.246.515.372.82.372.243 0 .487-.08.688-.245.453-.37.511-1.028.131-1.468-2.046-2.369-5.032-3.728-8.193-3.728zm11.47.804c-2.863-3.318-7.044-5.22-11.47-5.22-4.427 0-8.606 1.902-11.47 5.22-.381.441-.322 1.098.131 1.469.201.164.444.244.687.244.306 0 .609-.126.821-.372 2.455-2.844 6.038-4.476 9.831-4.476s7.376 1.631 9.831 4.476c.211.246.515.372.82.372.244 0 .488-.08.688-.245.452-.37.512-1.028.131-1.468z" fill="#006f7f" fill-rule="nonzero"/>
</svg>
