<svg clip-rule="evenodd" fill-rule="evenodd" stroke-linejoin="round" stroke-miterlimit="1.41421" viewBox="0 0 48 48" xmlns="http://www.w3.org/2000/svg">
 <linearGradient id="a" x2="1" gradientTransform="matrix(-1.3283 41.1643 41.1643 1.3283 2360.34 79.5796)" gradientUnits="userSpaceOnUse">
  <stop stop-color="#ffffff" stop-opacity="0" offset="0"/>
  <stop stop-color="#bdbdbd" stop-opacity=".76" offset=".48"/>
  <stop stop-color="#a9a9a9" offset="1"/>
 </linearGradient>
 <linearGradient id="b" x2="1" gradientTransform="matrix(-8.23275 29.965 29.965 8.23275 1722.98 483.579)" gradientUnits="userSpaceOnUse">
  <stop stop-color="#999999" offset="0"/>
  <stop stop-color="#b2a79c" stop-opacity=".72" offset="1"/>
 </linearGradient>
 <linearGradient id="c" x2="1" gradientTransform="matrix(-34.9165 0 0 34.9165 41.1453 2079.31)" gradientUnits="userSpaceOnUse">
  <stop stop-color="#323232" offset="0"/>
  <stop stop-color="#c3c3c3" offset="1"/>
 </linearGradient>
 <path d="m25.701 45.358c4.69-.321 8.509-1.602 10.159-3.408.588-.643.747-.987.921-1.993.48-2.776 5.201-29.142 5.325-29.615.057-3.813-9.565-6.162-17.943-6.1-10.596 0-18.512 2.509-18.528 5.737.638 3.413 3.937 20.099 5.387 30.35 0 .127.129.488.287.804.799 1.6 3.481 3.018 7.103 3.756 2.015.411 5.173.614 7.289.469z" fill="none" stroke="url(#a)" stroke-width=".29"/>
 <g fill-rule="nonzero">
  <path d="m25.701 45.358c4.69-.321 8.509-1.602 10.159-3.408.588-.643.747-.987.921-1.993.48-2.776 5.201-29.142 5.325-29.615.057-3.813-9.565-6.162-17.943-6.1-10.596 0-18.512 2.509-18.528 5.737.638 3.413 3.937 20.099 5.387 30.35 0 .127.129.488.287.804.799 1.6 3.481 3.018 7.103 3.756 2.015.411 5.173.614 7.289.469z" fill="url(#b)"/>
  <path d="m25.964 13.838c6.061-.233 11.661-1.529 14.08-3.257.614-.439 1.103-1.065 1.101-1.409-.003-.582-.93-1.452-2.231-2.093-5.57-2.744-17.094-3.475-25.542-1.62-2.918.641-5.123 1.514-6.341 2.511-.824.674-.979 1.102-.621 1.711.841 1.429 4.585 2.885 9.297 3.614 1.896.293 3.701.46 5.938.548 1.958.077 2.206.076 4.319-.005z" fill="url(#c)"/>
 </g>
</svg>
