<svg clip-rule="evenodd" fill-rule="evenodd" stroke-linejoin="round" stroke-miterlimit="1.41421" viewBox="0 0 48 48" xmlns="http://www.w3.org/2000/svg">
 <linearGradient id="a" x2="1" gradientTransform="matrix(-1.3283 41.1643 41.1643 1.3283 2360.34 79.5796)" gradientUnits="userSpaceOnUse">
  <stop stop-color="#ffffff" stop-opacity="0" offset="0"/>
  <stop stop-color="#bdbdbd" stop-opacity=".76" offset=".48"/>
  <stop stop-color="#a9a9a9" offset="1"/>
 </linearGradient>
 <linearGradient id="b" x2="1" gradientTransform="matrix(-8.23275 29.965 29.965 8.23275 1722.98 483.579)" gradientUnits="userSpaceOnUse">
  <stop stop-color="#999999" offset="0"/>
  <stop stop-color="#b2a79c" stop-opacity=".72" offset="1"/>
 </linearGradient>
 <linearGradient id="c" x2="1" gradientTransform="matrix(-34.9165 0 0 34.9165 41.1453 2079.31)" gradientUnits="userSpaceOnUse">
  <stop stop-color="#323232" offset="0"/>
  <stop stop-color="#c3c3c3" offset="1"/>
 </linearGradient>
 <path d="m25.701 45.358c4.69-.321 8.509-1.602 10.159-3.408.588-.643.747-.987.921-1.993.48-2.776 5.201-29.142 5.325-29.615.057-3.813-9.565-6.162-17.943-6.1-10.596 0-18.512 2.509-18.528 5.737.638 3.413 3.937 20.099 5.387 30.35 0 .127.129.488.287.804.799 1.6 3.481 3.018 7.103 3.756 2.015.411 5.173.614 7.289.469z" fill="none" stroke="url(#a)" stroke-width=".29"/>
 <g fill-rule="nonzero">
  <path d="m25.701 45.358c4.69-.321 8.509-1.602 10.159-3.408.588-.643.747-.987.921-1.993.48-2.776 5.201-29.142 5.325-29.615.057-3.813-9.565-6.162-17.943-6.1-10.596 0-18.512 2.509-18.528 5.737.638 3.413 3.937 20.099 5.387 30.35 0 .127.129.488.287.804.799 1.6 3.481 3.018 7.103 3.756 2.015.411 5.173.614 7.289.469z" fill="url(#b)"/>
  <path d="m25.964 13.838c6.061-.233 11.661-1.529 14.08-3.257.614-.439 1.103-1.065 1.101-1.409-.003-.582-.93-1.452-2.231-2.093-5.57-2.744-17.094-3.475-25.542-1.62-2.918.641-5.123 1.514-6.341 2.511-.824.674-.979 1.102-.621 1.711.841 1.429 4.585 2.885 9.297 3.614 1.896.293 3.701.46 5.938.548 1.958.077 2.206.076 4.319-.005z" fill="url(#c)"/>
  <path d="m12.851 12.738c-1.885-.543-2.191-.459-2.218-1.432-.012-.433.061-1.722.053-1.811-.019-.205 2.383-2.54 2.705-2.551.133-.004 1.259.22 1.471.301l.564 1.241.022.608c.084 2.428-1.688.84-1.688 1.101 0 .169.227.805.505 1.414.277.609.587.924.489 1.53-1.042-.23-1.215-.237-1.903-.401z" fill="#f5284e"/>
  <path d="m33.296 12.563c0-.287.982-1.45.212-2.334-1.194-1.37-.889-1.023.439-1.849.827-.92.591-1.238 1.278-.463.777.737 1.216 4.248 1.03 4.357-.168.135-3.054.78-3.255.78-.081 0 .296-.273.296-.491z" fill="#1ec6dd"/>
  <path d="m19.625 13.696c-1.991-.149-4.481-.472-4.902-.565-.392-.087-.473-.77-.861-1.733-.257-.639-.467-1.221-.467-1.295 0-.131 1.432-3.293 3.007-5.183.443-.532 2.167-2.944 2.294-2.946.33-.004 5.387 3.347 5.796 3.441.227.052.437.293.633.727.161.358.385.685.497.727.113.042 1.02-.091 2.017-.296s1.944-.373 2.105-.373c.364 0 5.019 4.793 5.019 5.169 0 .305.305 1.192-.089 1.323-.374.123-.917.292-1.787.422-3.046.455-4.234.655-8.954.764-2.053.047-4.025-.161-4.308-.182z" fill="#f4f4f4"/>
 </g>
 <path d="m15.399 11.266.405-3.378 2.636.544 2.008 1.965 3.524-1.592 2.054 3.259 4.033.31 1.538.912s-3.564.601-7.472.599c-4-.002-7.115-.448-8.321-.59-.153-.764-.405-2.029-.405-2.029z" fill="#dddddd"/>
</svg>
