<svg clip-rule="evenodd" fill-rule="evenodd" stroke-linejoin="round" stroke-miterlimit="2" viewBox="0 0 48 48" xmlns="http://www.w3.org/2000/svg">
 <linearGradient id="a" x2="1" gradientTransform="matrix(-40.9891 29.9086 -21.7748 -29.842 44.7188 9.23817)" gradientUnits="userSpaceOnUse">
  <stop stop-color="#007b8e" offset="0"/>
  <stop stop-color="#03d0df" offset="1"/>
 </linearGradient>
 <linearGradient id="b" x2="1" gradientTransform="matrix(.175929 -29.8649 29.8649 .175929 1218.38 48.0135)" gradientUnits="userSpaceOnUse">
  <stop stop-color="#4ee8df" offset="0"/>
  <stop stop-color="#7ee6ff" offset="1"/>
 </linearGradient>
 <linearGradient id="c" x2="1" gradientTransform="matrix(40.1334 -42.246 42.246 40.1334 10.7041 53.126)" gradientUnits="userSpaceOnUse">
  <stop stop-color="#005e6c" offset="0"/>
  <stop stop-color="#00acc7" offset="1"/>
 </linearGradient>
 <path d="m45.841 11.924c0-2.079-1.679-3.764-3.75-3.764h-36.183c-2.07 0-3.75 1.685-3.75 3.764v24.275c0 2.079 1.68 3.764 3.75 3.764h36.183c2.071 0 3.75-1.685 3.75-3.764z" fill="url(#a)"/>
 <path d="m26.935 11.191c-.265.519-1.552 3.188-1.737 3.659-.272.694-.832 1.572-.959 1.898-.125.718.357 1.218.648 1.936.047.118.002.295.047.425-.261.514-.733 1.495-1.018 2.005-.771 1.382-1.556 2.027-2.364 3.378-.263.439.237.851.409 1.1.167.242 1.248.488 1.738.687.146.677-.339 1.579-1.017 2.185.059.565.352 1.267.868 1.435-.255.119-.808.336-.739 1.285.348.429 1.128.527 1.244.82.074.19.158.704.092.874-.243.632-.394 1.82-.163 2.204.234.389.821.836 1.331.74.753-.143 1.853.121 3.301-.15 1.08-.201 1.679.091 1.972.154 1.226 2.542 2.576 4.713 2.576 4.713h8.634c2.559 0 5-2.199 5-4.521v-20.121c-.024-1.964-.401-7.829-4.085-7.686 0 0-8.672-.068-12.676-.051-1.182.005-2.712 2.268-3.102 3.031z" fill="url(#b)"/>
 <path d="m46.841 11.91c0-2.624-2.127-4.75-4.75-4.75h-36.182c-2.623 0-4.75 2.126-4.75 4.75v24.185c0 2.622 2.127 4.749 4.75 4.749h36.183c2.622 0 4.749-2.127 4.749-4.749zm-1 1.119v.688h-43.682v-.312 22.69c0 2.07 1.679 3.75 3.75 3.75h36.183c2.07 0 3.749-1.68 3.749-3.75zm0-.312v-.807c0-2.072-1.679-3.75-3.75-3.75h-36.183c-2.07 0-3.75 1.678-3.75 3.75v.807z" fill="url(#c)"/>
</svg>
