<svg clip-rule="evenodd" fill-rule="evenodd" stroke-linejoin="round" stroke-miterlimit="2" viewBox="0 0 48 48" xmlns="http://www.w3.org/2000/svg">
 <linearGradient id="a" x2="1" gradientTransform="matrix(0 -45.5281 45.5281 0 249.091 46.764)" gradientUnits="userSpaceOnUse">
  <stop stop-color="#006783" offset="0"/>
  <stop stop-color="#20ccff" offset="1"/>
 </linearGradient>
 <circle cx="24" cy="24" r="22.764" fill="url(#a)"/>
 <path d="m22.569 28.237 7.205 7.207-6.08 6.08-6.014-6.014 4.053-4.053 1.556 1.557-2.496 2.496 2.901 2.901 2.967-2.967-5.648-5.651zm1.409-5.891 7.998-7.998 1.615 1.614-7.999 7.997 1.356 1.356-1.614 1.614-1.356-1.356-7.998 8-1.616-1.614 8-8-1.298-1.299 1.613-1.613zm5.514 5.514 4.099 4.099-1.615 1.614-4.097-4.099zm-5.131.967 4.524-4.509 1.556 1.556-4.521 4.509zm-4.563-3.36-1.557 1.557-5.75-5.75-2.967 2.967 2.941 2.939 2.377-2.369 1.557 1.557-3.941 3.92-6.047-6.047 6.08-6.082zm9.994-4.453 5.717 5.715 2.967-2.968-2.941-2.941-2.397 2.391-1.559-1.557 3.961-3.942 6.049 6.049-6.08 6.08-7.274-7.271zm-12.306 1.184 4.687-4.673 1.556 1.556-4.687 4.674zm2.659-3.685-1.613 1.614-4.168-4.165 1.616-1.614zm5.321 1.286-7.242-7.241 6.082-6.082 6.014 6.016-3.991 3.991-1.556-1.556 2.434-2.435-2.901-2.901-2.967 2.967 5.684 5.684z" fill="#ffffff" fill-opacity=".75"/>
</svg>
