<svg clip-rule="evenodd" fill-rule="evenodd" stroke-linejoin="round" stroke-miterlimit="2" viewBox="0 0 48 48" xmlns="http://www.w3.org/2000/svg">
 <linearGradient id="a" x2="1" gradientTransform="matrix(-40.9891 29.9086 -21.7748 -29.842 44.7188 9.23817)" gradientUnits="userSpaceOnUse">
  <stop stop-color="#781100" offset="0"/>
  <stop stop-color="#e62914" offset="1"/>
 </linearGradient>
 <linearGradient id="b" x2="1" gradientTransform="matrix(40.1334 -42.246 42.246 40.1334 10.7041 53.126)" gradientUnits="userSpaceOnUse">
  <stop stop-color="#7a1100" offset="0"/>
  <stop stop-color="#e62914" offset="1"/>
 </linearGradient>
 <path d="m45.841 11.924c0-2.079-1.679-3.764-3.75-3.764h-36.183c-2.07 0-3.75 1.685-3.75 3.764v24.275c0 2.079 1.68 3.764 3.75 3.764h36.183c2.071 0 3.75-1.685 3.75-3.764z" fill="url(#a)"/>
 <path d="m46.841 11.91c0-2.624-2.127-4.75-4.75-4.75h-36.182c-2.623 0-4.75 2.126-4.75 4.75v24.185c0 2.622 2.127 4.749 4.75 4.749h36.183c2.622 0 4.749-2.127 4.749-4.749zm-1 1.119v.688h-43.682v-.312 22.69c0 2.07 1.679 3.75 3.75 3.75h36.183c2.07 0 3.749-1.68 3.749-3.75zm0-.312v-.807c0-2.072-1.679-3.75-3.75-3.75h-36.183c-2.07 0-3.75 1.678-3.75 3.75v.807z" fill="url(#b)"/>
 <path d="m17.52 15.351-3.507 15.557h2.85l1.655-6.962h7.778l-7.284 6.521 1.899 2.186.972-.501c1.84-.946 2.611-.393 4.007-.005 1.357.377 2.634.78 5.281-.746l-.525-2.694c-2.89 2.054-3.804.221-5.863.148l5.892-4.985.64-2.662h-12.343l.794-3.195h8.09l.555-2.661h-10.891v-.001z" fill="#cacaca" fill-rule="nonzero"/>
</svg>
