<svg clip-rule="evenodd" fill-rule="evenodd" stroke-linejoin="round" stroke-miterlimit="2" viewBox="0 0 48 48" xmlns="http://www.w3.org/2000/svg">
 <linearGradient id="a" x2="1" gradientTransform="matrix(-40.9891 29.9086 -29.9086 -40.9891 -132.964 -234.273)" gradientUnits="userSpaceOnUse">
  <stop stop-color="#781100" offset="0"/>
  <stop stop-color="#e62914" offset="1"/>
 </linearGradient>
 <linearGradient id="b" x2="1" gradientTransform="matrix(40.1334 -42.246 42.246 40.1334 313.185 340.481)" gradientUnits="userSpaceOnUse">
  <stop stop-color="#7a1100" offset="0"/>
  <stop stop-color="#e62914" offset="1"/>
 </linearGradient>
 <path d="m45.841 11.924c0-2.079-1.679-3.764-3.75-3.764h-36.183c-2.07 0-3.75 1.685-3.75 3.764v24.275c0 2.079 1.68 3.764 3.75 3.764h36.183c2.071 0 3.75-1.685 3.75-3.764z" fill="url(#a)"/>
 <path d="m46.841 11.91c0-2.624-2.127-4.75-4.75-4.75h-36.182c-2.623 0-4.75 2.126-4.75 4.75v24.185c0 2.622 2.127 4.749 4.75 4.749h36.183c2.622 0 4.749-2.127 4.749-4.749zm-1 1.119v.688h-43.682v-.312 22.69c0 2.07 1.679 3.75 3.75 3.75h36.183c2.07 0 3.749-1.68 3.749-3.75zm0-.312v-.807c0-2.072-1.679-3.75-3.75-3.75h-36.183c-2.07 0-3.75 1.678-3.75 3.75v.807z" fill="url(#b)"/>
 <path d="m31.538 26.24c-1.26 2.907-4.231 4.149-7.537 4.149-3.378 0-6.328-1.251-7.544-4.174-.209-.5.028-1.075.531-1.283.123-.05.251-.075.376-.075.387 0 .752.228.91.606.91 2.187 3.147 2.963 5.727 2.963 2.521 0 4.782-.777 5.731-2.966.216-.498.795-.727 1.293-.511.499.215.728.793.513 1.291zm-14.028-6.596c0-1.12.911-2.028 2.034-2.028 1.122 0 2.033.908 2.033 2.028 0 1.121-.911 2.03-2.033 2.03-1.123 0-2.034-.909-2.034-2.03zm9.22 0c0-1.12.912-2.028 2.035-2.028 1.122 0 2.033.908 2.033 2.028 0 1.121-.911 2.03-2.033 2.03s-2.035-.909-2.035-2.03z" fill="#ffffff" fill-opacity=".7"/>
</svg>
