<svg clip-rule="evenodd" fill-rule="evenodd" stroke-linejoin="round" stroke-miterlimit="2" viewBox="0 0 48 48" xmlns="http://www.w3.org/2000/svg">
 <linearGradient id="a" x2="1" gradientTransform="matrix(30.1001 -31.6845 31.6845 30.1001 8.02804 39.8445)" gradientUnits="userSpaceOnUse">
  <stop stop-color="#005e6c" offset="0"/>
  <stop stop-color="#00acc7" offset="1"/>
 </linearGradient>
 <linearGradient id="b" x2="1" gradientTransform="matrix(-40.9891 29.9086 -21.7748 -29.842 44.7188 9.23817)" gradientUnits="userSpaceOnUse">
  <stop stop-color="#007b8e" offset="0"/>
  <stop stop-color="#03d0df" offset="1"/>
 </linearGradient>
 <linearGradient id="c" x2="1" gradientTransform="matrix(40.1334 -42.246 42.246 40.1334 10.7041 53.126)" gradientUnits="userSpaceOnUse">
  <stop stop-color="#005e6c" offset="0"/>
  <stop stop-color="#00bddb" offset="1"/>
 </linearGradient>
 <path d="m46.841 11.91c0-2.624-2.127-4.75-4.75-4.75h-36.182c-2.623 0-4.75 2.126-4.75 4.75v24.185c0 2.622 2.127 4.749 4.75 4.749h36.183c2.622 0 4.749-2.127 4.749-4.749zm-1 0c0-2.071-1.679-3.75-3.75-3.75h-36.183c-2.07 0-3.75 1.679-3.75 3.75v24.185c0 2.07 1.68 3.75 3.75 3.75h36.183c2.071 0 3.75-1.68 3.75-3.75z" fill="url(#a)"/>
 <path d="m45.841 11.924c0-2.079-1.679-3.764-3.75-3.764h-36.183c-2.07 0-3.75 1.685-3.75 3.764v24.275c0 2.079 1.68 3.764 3.75 3.764h36.183c2.071 0 3.75-1.685 3.75-3.764z" fill="url(#b)"/>
 <path d="m2.159 13.217h43.683" fill="none" stroke="url(#c)"/>
 <path d="m18.089 21.702c0-1.12.911-2.029 2.033-2.029 1.123 0 2.033.909 2.033 2.029 0 1.121-.91 2.03-2.033 2.03-1.122 0-2.033-.909-2.033-2.03zm7.948 0c0-1.12.911-2.029 2.034-2.029 1.122 0 2.033.909 2.033 2.029 0 1.121-.911 2.03-2.033 2.03-1.123 0-2.034-.909-2.034-2.03zm5.482 6.274c-1.261 2.908-4.212 4.787-7.519 4.787-3.378 0-6.346-1.888-7.563-4.811-.208-.501.029-1.075.531-1.283.124-.051.252-.075.377-.075.386 0 .752.227.909.605.911 2.188 3.166 3.601 5.746 3.601 2.522 0 4.764-1.414 5.712-3.603.216-.498.795-.727 1.293-.511.5.215.729.792.514 1.29z" fill="#ffffff" fill-opacity=".73" fill-rule="nonzero"/>
</svg>
