<svg clip-rule="evenodd" fill-rule="evenodd" stroke-linejoin="round" stroke-miterlimit="2" viewBox="0 0 48 48" xmlns="http://www.w3.org/2000/svg">
 <linearGradient id="a" x2="1" gradientTransform="matrix(30.1001 -31.6845 31.6845 30.1001 8.02804 39.8445)" gradientUnits="userSpaceOnUse">
  <stop stop-color="#005e6c" offset="0"/>
  <stop stop-color="#00acc7" offset="1"/>
 </linearGradient>
 <linearGradient id="b" x2="1" gradientTransform="matrix(-40.9891 29.9086 -21.7748 -29.842 44.7188 9.23817)" gradientUnits="userSpaceOnUse">
  <stop stop-color="#007b8e" offset="0"/>
  <stop stop-color="#03d0df" offset="1"/>
 </linearGradient>
 <linearGradient id="c" x2="1" gradientTransform="matrix(40.1334 -42.246 42.246 40.1334 10.7041 53.126)" gradientUnits="userSpaceOnUse">
  <stop stop-color="#005e6c" offset="0"/>
  <stop stop-color="#00bddb" offset="1"/>
 </linearGradient>
 <path d="m46.841 11.91c0-2.624-2.127-4.75-4.75-4.75h-36.182c-2.623 0-4.75 2.126-4.75 4.75v24.185c0 2.622 2.127 4.749 4.75 4.749h36.183c2.622 0 4.749-2.127 4.749-4.749zm-1 0c0-2.071-1.679-3.75-3.75-3.75h-36.183c-2.07 0-3.75 1.679-3.75 3.75v24.185c0 2.07 1.68 3.75 3.75 3.75h36.183c2.071 0 3.75-1.68 3.75-3.75z" fill="url(#a)"/>
 <path d="m45.841 11.924c0-2.079-1.679-3.764-3.75-3.764h-36.183c-2.07 0-3.75 1.685-3.75 3.764v24.275c0 2.079 1.68 3.764 3.75 3.764h36.183c2.071 0 3.75-1.685 3.75-3.764z" fill="url(#b)"/>
 <path d="m2.159 13.217h43.683" fill="none" stroke="url(#c)"/>
 <path d="m22.345 32.185c0 .913.742 1.655 1.655 1.655s1.654-.742 1.654-1.655c-.279-2.348-3.255-1.749-3.309 0zm1.655-5.351c-1.781 0-3.463.786-4.613 2.155-.357.425-.302 1.059.123 1.415.188.158.417.236.645.236.287 0 .572-.122.77-.358.768-.914 1.889-1.439 3.075-1.439s2.307.525 3.075 1.439c.199.237.484.358.77.358.228 0 .457-.077.645-.236.425-.357.48-.99.123-1.415-1.15-1.369-2.832-2.155-4.613-2.155zm0-4.419c-2.968 0-5.77 1.31-7.689 3.593-.357.424-.302 1.058.123 1.415.188.158.417.235.646.235.286 0 .571-.122.769-.358 1.536-1.828 3.778-2.876 6.151-2.876 2.372 0 4.614 1.048 6.151 2.876.199.237.483.358.769.358.229 0 .458-.077.646-.235.425-.357.48-.992.123-1.415-1.92-2.283-4.722-3.593-7.689-3.593zm10.764.775c.357.424.302 1.059-.122 1.415-.188.159-.417.236-.646.236-.286 0-.571-.122-.77-.359-2.304-2.74-5.667-4.312-9.226-4.312s-6.923 1.572-9.226 4.313c-.199.236-.484.358-.77.358-.229 0-.457-.077-.645-.236-.426-.356-.48-.99-.123-1.415 2.687-3.197 6.61-5.03 10.764-5.03s8.078 1.833 10.764 5.03z" fill="#ffffff" fill-opacity=".85" fill-rule="nonzero"/>
</svg>
