<svg clip-rule="evenodd" fill-rule="evenodd" stroke-linejoin="round" stroke-miterlimit="2" viewBox="0 0 36 36" xmlns="http://www.w3.org/2000/svg">
 <path d="m34.01 7.155c0-2.852-2.313-5.165-5.165-5.165h-21.69c-2.852 0-5.165 2.313-5.165 5.165v21.69c0 2.852 2.313 5.165 5.165 5.165h21.69c2.852 0 5.165-2.313 5.165-5.165v-21.69zm-1.974.176c0-1.859-1.508-3.367-3.367-3.367h-21.338c-1.859 0-3.367 1.508-3.367 3.367v21.338c0 1.859 1.508 3.367 3.367 3.367h21.338c1.859 0 3.367-1.508 3.367-3.367z" fill-opacity=".82"/>
 <path d="m32.036 27.379-5.47-5.949-4.977 4.969-9.526-12.72-8.099 11.047v3.943c0 1.859 1.508 3.367 3.367 3.367h21.338c1.859 0 3.367-1.508 3.367-3.367z" fill-opacity=".5"/>
</svg>
