<svg xmlns="http://www.w3.org/2000/svg" style="fill-rule:evenodd;clip-rule:evenodd;stroke-linejoin:round;stroke-miterlimit:2" width="100%" height="100%" version="1.1" viewBox="0 0 16 16" xml:space="preserve">
 <defs>
  <style id="current-color-scheme" type="text/css">
   .ColorScheme-Text { color:#dfdfdf; } .ColorScheme-Highlight { color:#4285f4; } .ColorScheme-NeutralText { color:#ff9800; } .ColorScheme-PositiveText { color:#4caf50; } .ColorScheme-NegativeText { color:#f44336; }
  </style>
 </defs>
 <path style="fill:currentColor;" class="ColorScheme-Text" d="M7.36,9.964l3.273,3.274l-2.762,2.762l-2.732,-2.732l1.841,-1.841l0.707,0.707l-1.134,1.134l1.318,1.318l1.348,-1.348l-2.566,-2.567l0.707,-0.707Zm0.64,-2.676l3.633,-3.633l0.734,0.733l-3.634,3.633l0.616,0.616l-0.733,0.733l-0.616,-0.616l-3.633,3.634l-0.734,-0.733l3.634,-3.634l-0.59,-0.59l0.733,-0.733l0.59,0.59Zm2.505,2.505l1.862,1.862l-0.734,0.733l-1.861,-1.862l0.733,-0.733Zm-2.331,0.439l2.055,-2.048l0.707,0.707l-2.054,2.048l-0.708,-0.707Zm-2.073,-1.526l-0.707,0.707l-2.612,-2.612l-1.348,1.348l1.336,1.335l1.08,-1.076l0.707,0.707l-1.79,1.781l-2.747,-2.747l2.762,-2.763l3.319,3.32Zm4.54,-2.023l2.597,2.596l1.348,-1.348l-1.336,-1.336l-1.089,1.086l-0.708,-0.707l1.799,-1.791l2.748,2.748l-2.762,2.762l-3.304,-3.303l0.707,-0.707Zm-5.59,0.538l2.129,-2.123l0.707,0.707l-2.129,2.123l-0.707,-0.707Zm1.208,-1.674l-0.733,0.733l-1.893,-1.892l0.734,-0.733l1.892,1.892Zm2.417,0.584l-3.29,-3.289l2.763,-2.763l2.732,2.733l-1.813,1.813l-0.707,-0.707l1.106,-1.106l-1.318,-1.318l-1.348,1.348l2.582,2.582l-0.707,0.707Z"/>
</svg>
